<svg width="48" height="36" fill="none" xmlns="http://www.w3.org/2000/svg"><path d="M9.75 28.25a2.25 2.25 0 100 4.5 2.25 2.25 0 000-4.5zm0 3a.75.75 0 110-1.5.75.75 0 010 1.5zm28.5-3a2.25 2.25 0 100 4.5 2.25 2.25 0 000-4.5zm0 3a.75.75 0 110-1.5.75.75 0 010 1.5z" fill="#23242D"/><path d="M47.13 18.094l-6.75-10.5a.75.75 0 00-.63-.344h-9V3.125A2.628 2.628 0 0028.125.5H3.375A2.628 2.628 0 00.75 3.125V30.5a.75.75 0 00.75.75h3.054a5.25 5.25 0 0010.392 0h18.108a5.25 5.25 0 0010.392 0H46.5a.75.75 0 00.75-.75v-12a.75.75 0 00-.12-.406zM9.75 34.25a3.75 3.75 0 110-7.5 3.75 3.75 0 010 7.5zm19.5-4.5H14.946a5.25 5.25 0 00-10.392 0H2.25v-7.5h27v7.5zm0-9h-27V3.125A1.126 1.126 0 013.375 2h24.75a1.126 1.126 0 011.125 1.125V20.75zM40.787 11l4.34 6.75H34.5V11h6.287zM38.25 34.25a3.75 3.75 0 110-7.5 3.75 3.75 0 010 7.5zm7.5-10.5h-1.5a.75.75 0 110-1.5h1.5v1.5zm0-3h-1.5a2.25 2.25 0 000 4.5h1.5v4.5h-2.304a5.25 5.25 0 00-10.392 0H30.75v-21h8.59l.483.75H33.75a.75.75 0 00-.75.75v8.25a.75.75 0 00.75.75h12v1.5z" fill="#23242D"/><path d="M36 20.75h-2.25a.75.75 0 100 1.5H36a.75.75 0 100-1.5zm-15.75 4.5h6a.75.75 0 100-1.5h-6a.75.75 0 100 1.5zm6 .75H24a.75.75 0 100 1.5h2.25a.75.75 0 100-1.5z" fill="#23242D"/></svg>