<svg width="48" height="48" fill="none" xmlns="http://www.w3.org/2000/svg"><g clip-path="url(#clip0_56_10494)" fill="#23242D"><path d="M47.794.209a.703.703 0 00-.995 0l-2.597 2.597a3.388 3.388 0 00-1.532-.537L27.233.793a3.392 3.392 0 00-2.73.981L8.663 17.612a.703.703 0 10.995.995L25.497 2.769a1.991 1.991 0 011.602-.576L42.536 3.67c.224.021.436.08.633.17l-2.08 2.078a2.983 2.983 0 00-1.567-.44 2.98 2.98 0 00-2.124.88 3.007 3.007 0 000 4.247 2.98 2.98 0 002.124.88c.802 0 1.556-.313 2.124-.88 1-1 1.145-2.535.438-3.691l2.08-2.08c.088.196.148.41.17.633l1.476 15.437a1.99 1.99 0 01-.576 1.602L21.716 46.024a2.014 2.014 0 01-2.824 0L1.979 29.11a2.014 2.014 0 010-2.824l5.391-5.391a.703.703 0 10-.994-.995L.984 25.292c-1.313 1.313-1.312 3.501 0 4.813L17.898 47.02c1.292 1.292 3.493 1.32 4.813 0L46.229 23.5a3.393 3.393 0 00.981-2.731L45.734 5.333a3.388 3.388 0 00-.537-1.532l2.597-2.597a.703.703 0 000-.995zm-7.143 9.402a1.612 1.612 0 01-2.259 0 1.6 1.6 0 010-2.26 1.61 1.61 0 011.646-.38l-1.013 1.013a.703.703 0 10.994.995l1.013-1.013c.189.558.063 1.2-.38 1.645z"/><path d="M41.945 18.52L29.483 6.057c-1.312-1.312-3.503-1.31-4.814 0L5.435 25.291a3.394 3.394 0 00-.973 2.407c0 .88.325 1.758.973 2.407l12.463 12.462c1.312 1.312 3.502 1.311 4.813 0l19.234-19.234c1.313-1.313 1.312-3.502 0-4.813zm-.995 3.818L21.716 41.572a2.014 2.014 0 01-2.824 0L6.43 29.11a2.014 2.014 0 010-2.824L25.664 7.052a2.013 2.013 0 012.824 0L40.95 19.514c.767.767.765 2.06 0 2.824z"/><path d="M27.365 27.681c-1.641-1.64-4.094-1.408-5.718.216l-.033.033c-1.591 1.591-1.84 4.027-.216 5.652 1.641 1.64 4.11 1.392 5.718-.216l.033-.033c1.591-1.591 1.84-4.027.216-5.652zm-1.724 4.21l-.033.033c-.895.895-2.121 1.193-2.9.414-.746-.745-.53-2.022.414-2.966l.033-.033c.895-.895 2.122-1.194 2.9-.415.746.746.514 2.039-.414 2.967zm7.922-9.778c-.232-.232-.547-.348-.861-.265l-17.999 2.784a1.061 1.061 0 00-.58.281.9.9 0 000 1.293.96.96 0 00.878.282L33 23.704a1.06 1.06 0 00.58-.282.92.92 0 00-.017-1.31zm-7.275-7.375c-1.641-1.641-4.094-1.41-5.718.215l-.033.033c-1.591 1.591-1.84 4.027-.216 5.652 1.657 1.657 4.11 1.392 5.718-.216l.033-.033c1.591-1.59 1.856-4.01.216-5.651zm-1.724 4.21l-.033.032c-.895.895-2.122 1.194-2.9.415-.746-.746-.53-2.022.414-2.967l.033-.033c.895-.895 2.121-1.193 2.9-.414.746.745.514 2.038-.414 2.966z"/></g><defs><clipPath id="clip0_56_10494"><path fill="#fff" d="M0 0h48v48H0z"/></clipPath></defs></svg>