<svg width="38" height="48" fill="none" xmlns="http://www.w3.org/2000/svg"><path d="M37.311 39.729c-.106-6.524-6.776-8.451-11.646-9.858a99.117 99.117 0 01-1.627-.48V26.7a9.588 9.588 0 002.572-2.364h2.966a2.636 2.636 0 002.633-2.633v-3.188c.176-.41.274-.861.274-1.335v-.992c0-.473-.098-.924-.274-1.334v-1.645C32.21 5.926 26.284 0 19 0 11.718 0 5.793 5.926 5.793 13.21v1.597l.002.037a3.376 3.376 0 00-.278 1.345v.99a3.4 3.4 0 003.396 3.399h.774a9.541 9.541 0 004.275 6.121v2.692c-.512.157-1.058.315-1.627.48C7.465 31.278.796 33.205.69 39.729v7.334c0 .517.42.937.937.937h2.78a.938.938 0 000-1.875H2.564v-6.373c.04-2.276 1.085-3.982 3.29-5.37 1.455-.915 3.234-1.567 4.987-2.112l2.265 4.413a.947.947 0 001.359.349l1.01-.681.867 3.259-1.486 6.515h-2.032a.938.938 0 000 1.875h23.55c.517 0 .937-.42.937-.938v-7.333zm-12.167-8.057l.187.054-1.62 3.16-3.034-2.045 2.57-1.733c.597.188 1.232.372 1.897.564zm-6.143 2.3l1.88 1.268-.909 3.415h-1.944l-.908-3.414L19 33.972zm0-2.261l-3.164-2.133v-1.974a9.47 9.47 0 003.163.542 9.466 9.466 0 003.163-.541v1.973L19 31.71zm7.637-18.33l-.039-.024c-1.923-1.225-3.585-2.283-6.188-1.538a.956.956 0 00-.072.024c-.552.207-1.053.4-1.539.587-2.965 1.141-4.583 1.765-7.438 1.684v-.75c0-4.212 3.427-7.638 7.638-7.638s7.638 3.426 7.638 7.638v.017zm3.696 8.322c0 .418-.34.758-.758.758h-1.868a9.433 9.433 0 00.605-1.883h.774c.44 0 .86-.085 1.247-.238v1.363zm.274-4.523c0 .84-.682 1.523-1.52 1.523h-.576v-4.035h.575c.839 0 1.521.682 1.521 1.52v.992zM8.913 18.703c-.839 0-1.52-.683-1.52-1.523v-.991c0-.839.681-1.521 1.52-1.521h.574l.001 4.035h-.575zm.592-5.91h-.592c-.439 0-.857.084-1.242.236C7.768 6.862 12.812 1.875 19 1.875c6.19 0 11.236 4.988 11.332 11.155a3.376 3.376 0 00-1.245-.237h-.592C28.2 7.812 24.054 3.85 19 3.85c-5.054 0-9.199 3.961-9.495 8.942zm1.914 6.752v-.003a7.687 7.687 0 01-.057-.909V15.99c3.208.078 5.121-.658 8.112-1.809.47-.181.957-.369 1.488-.568 1.77-.494 2.79.155 4.63 1.326.32.204.67.426 1.046.655v3.04a7.589 7.589 0 01-1.033 3.828H19a.938.938 0 000 1.875h5.074A7.605 7.605 0 0119 26.27c-3.903 0-7.129-2.943-7.581-6.726zm2.873 15.342l-1.622-3.161.186-.054c.665-.192 1.3-.376 1.897-.564l2.57 1.734-3.03 2.045zm2.487 11.238l1.276-5.595h1.89l1.278 5.595h-4.444zm18.657 0h-12.29l-1.488-6.515.868-3.26 1.012.682a.947.947 0 001.358-.35l2.263-4.412c1.754.545 3.532 1.197 4.987 2.113 2.205 1.386 3.251 3.093 3.29 5.369v6.373z" fill="#23242D"/><path d="M31.734 41.437h-4.725a.938.938 0 000 1.875h4.725a.938.938 0 000-1.875zM8.615 46.125a.938.938 0 000 1.875h.003a.936.936 0 10-.003-1.875z" fill="#23242D"/></svg>