<svg width="48" height="48" fill="none" xmlns="http://www.w3.org/2000/svg"><g clip-path="url(#clip0_56_10450)" fill="#23242D"><path d="M31.579 26.4c-2.613 0-4.737 2.153-4.737 4.8s2.125 4.8 4.737 4.8 4.737-2.153 4.737-4.8-2.125-4.8-4.737-4.8zm0 8c-1.742 0-3.158-1.435-3.158-3.2 0-1.765 1.416-3.2 3.158-3.2s3.158 1.435 3.158 3.2c0 1.765-1.416 3.2-3.158 3.2z"/><path d="M33.158 34.4v3.306l-1.142-.772a.777.777 0 00-.875 0L30 37.706V34.4h-1.579v4.8c0 .295.16.566.418.706a.78.78 0 00.81-.04l1.93-1.304 1.93 1.303a.785.785 0 00.811.04.802.802 0 00.417-.705v-4.8h-1.58zM28.421 8H18.158v1.6H28.42V8zm7.895 4.8H11.053v1.6h25.263v-1.6zm-7.895 4.8H11.053v1.6H28.42v-1.6zm7.895 0h-4.737v1.6h4.737v-1.6zm0 4.8H11.053V24h25.263v-1.6zm-15.79 4.8h-9.473v1.6h9.473v-1.6zM15 31.2h-3.947v1.6H15v-1.6zm5.526 0h-2.368v1.6h2.368v-1.6zM43.421 0c-2.176 0-3.947 1.794-3.947 4v1.6c0 .442.353.8.79.8h6.315c.437 0 .79-.358.79-.8V4c0-2.206-1.771-4-3.948-4zm2.368 4.8h-4.736V4c0-1.323 1.062-2.4 2.368-2.4 1.306 0 2.368 1.077 2.368 2.4v.8z"/><path d="M43.421 0H10.263C8.087 0 6.316 1.794 6.316 4v38.4h1.579V4c0-1.323 1.062-2.4 2.368-2.4h30.002a4.014 4.014 0 00-.791 2.4v40c0 1.323-1.063 2.4-2.369 2.4h-30V48h30c2.177 0 3.948-1.794 3.948-4V4c0-1.323 1.062-2.4 2.368-2.4.437 0 .79-.358.79-.8 0-.442-.353-.8-.79-.8z"/><path d="M37.105 46.4c-1.305 0-2.368-1.077-2.368-2.4v-1.6c0-.442-.353-.8-.79-.8H.79a.795.795 0 00-.789.8V44c0 2.206 1.77 4 3.947 4h33.158c.437 0 .79-.357.79-.8 0-.442-.353-.8-.79-.8zm-33.158 0c-1.305 0-2.368-1.077-2.368-2.4v-.8h31.579v.8c0 .9.294 1.731.79 2.4h-30z"/></g><defs><clipPath id="clip0_56_10450"><path fill="#fff" d="M0 0h48v48H0z"/></clipPath></defs></svg>