<svg width="153" height="56" fill="none" xmlns="http://www.w3.org/2000/svg"><path fill-rule="evenodd" clip-rule="evenodd" d="M0 .483h55.703l-7.601 9.83H11.529v4.297h33.166l-6.53 8.802H11.528v4.734h26.978L54.833 7.171C57.95 3.172 59.355.843 64.77.17c2.157-.268 5.348.046 5.765 2.896.037.253 2.856 20.102 2.856 20.102L85.887 7.324C89.494 2.621 91.912-.32 98.137.04c.677.038 1.287.176 1.763.506 1.19.82 1.763 2.351 1.785 2.689.022.298 2.611 22.231 3.169 26.965H92.678L91.42 14.441l-4.426 5.723c-4.217 5.454-12.48 18.431-18.826 18.431-3.89 0-5.46-4.795-6.233-9.775l-.75-4.849-1.332-8.565-16.446 22.63H0V.483z" fill="#323C92"/><path fill-rule="evenodd" clip-rule="evenodd" d="M131.065 37.982v3.578h15.315v-8.971h6.568v23.35h-6.568v-8.994h-21.883V32.589h6.568v5.393zm-37.74-5.393v5.393h21.89v3.578H93.332v14.379h28.458v-5.393H99.907v-3.601h21.883V32.589H93.325zm59.63-22.278V.49h-7.624l-6.939 11.744 8.591.26-19.042 17.712h25.014V10.311zM139.269.483L123.062 15.59l8.591.398-8.494 14.21h-14.765c-.528-4.489-1.063-8.978-1.592-13.475-.542-4.596-1.145-9.23-1.621-13.835-.074-.789-.364-1.624-.788-2.413h34.876v.008zM0 41.567h4.002v14.38H0v-14.38zm14.125 0h5.586v14.38h-5.586v-14.38zm13.053 0h5.854v14.38H27.18v-14.38zm12.415 0h6.456v14.38h-6.456v-14.38zm10.911 0h6.702v14.38h-6.702v-14.38zm10.785 0h6.516v14.38h-6.516v-14.38zm9.833 0h6.992v14.38h-6.992v-14.38zm9.55 0h8.562v14.38h-8.561v-14.38z" fill="#323C92"/></svg>