<svg width="22" height="24" fill="none" xmlns="http://www.w3.org/2000/svg"><path d="M15.47 9.938c-.03-.356-.457-.627-.954-.604l-9.261.42c-.497.023-.875.33-.845.687.03.356.458.627.954.604l9.262-.42c.497-.023.875-.33.845-.687zm-10.216 3.24c-.494.025-.87.362-.84.754.03.392.455.69.95.665l5.598-.28c.494-.024.87-.362.84-.754-.03-.392-.455-.69-.949-.665l-5.599.28z" fill="#fff"/><path d="M8.12 21.111l-2.829.168a1.701 1.701 0 01-1.792-1.6L2.61 4.715a1.7 1.7 0 011.59-1.8l10.396-.616a1.701 1.701 0 011.792 1.6l.31 5.229a.85.85 0 00.897.8.85.85 0 00.795-.9l-.311-5.229c-.112-1.875-1.72-3.31-3.584-3.2l-10.396.615C2.234 1.324.807 2.94.919 4.816l.89 14.963a3.401 3.401 0 003.584 3.2l2.827-.167a.85.85 0 00.795-.9.85.85 0 00-.896-.8zm12.13-7.843a2.62 2.62 0 00-3.64.212l-4.428 4.875a.833.833 0 00-.193.363l-.823 3.364a.83.83 0 00.258.818.871.871 0 00.857.173l3.405-1.142a.859.859 0 00.364-.237l4.418-4.865a2.488 2.488 0 00-.219-3.561zm-5.335 7.144l-1.713.574.409-1.672 2.987-3.289 1.287 1.117-2.97 3.27zm4.267-4.7l-.156.172-1.286-1.116.156-.171a.874.874 0 011.213-.071.83.83 0 01.073 1.186z" fill="#fff"/><path d="M14.51 5.778l-9.261.42c-.497.023-.875.33-.845.687.03.356.458.627.955.604l9.261-.42c.497-.023.875-.33.845-.686-.03-.357-.458-.628-.954-.605z" fill="#fff"/></svg>