<svg width="82" height="82" fill="none" xmlns="http://www.w3.org/2000/svg"><circle cx="41" cy="41" r="41" fill="#FFA14D"/><g clip-path="url(#clip0_1955_477)" fill="#fff"><path d="M56.416 46.75a5.75 5.75 0 100-11.5 5.75 5.75 0 000 11.5z"/><path d="M48.75 39.083a1.917 1.917 0 100-3.833 1.917 1.917 0 000 3.833zm3.834-3.833a1.917 1.917 0 100-3.833 1.917 1.917 0 000 3.833zm7.666 0a1.917 1.917 0 100-3.833 1.917 1.917 0 000 3.833zm3.834 3.833a1.917 1.917 0 100-3.833 1.917 1.917 0 000 3.833zM43.958 60.167c-5.82-.007-10.535-4.723-10.542-10.542v-6.708h-3.833v6.708c0 7.94 6.436 14.375 14.375 14.375 7.94 0 14.375-6.436 14.375-14.375H54.5c-.007 5.82-4.722 10.535-10.542 10.542zM43 29.5v-9.583A1.917 1.917 0 0041.083 18h-5.75v3.833h3.834V29.5a7.667 7.667 0 11-15.334 0v-7.667h3.834V18h-5.75A1.917 1.917 0 0020 19.917V29.5C20 35.851 25.149 41 31.5 41S43 35.851 43 29.5z"/></g><defs><clipPath id="clip0_1955_477"><path fill="#fff" transform="translate(20 18)" d="M0 0h46v46H0z"/></clipPath></defs></svg>