<svg width="22" height="20" fill="none" xmlns="http://www.w3.org/2000/svg"><path d="M21.535 8.215L11.244.68a.564.564 0 00-.666 0L.286 8.215a.564.564 0 10.666.91l9.958-7.291 9.958 7.29a.564.564 0 00.666-.91z" fill="#FFA14D" fill-opacity=".64"/><path d="M18.808 9.251a.564.564 0 00-.564.564v8.979h-4.513v-4.9a2.821 2.821 0 00-5.64 0v4.9H3.576V9.815a.564.564 0 10-1.128 0v9.543a.564.564 0 00.564.564h5.641a.564.564 0 00.562-.564v-5.465a1.693 1.693 0 113.385 0v5.465a.565.565 0 00.562.564h5.641a.564.564 0 00.564-.564V9.815a.564.564 0 00-.56-.564z" fill="#FFA14D" fill-opacity=".64"/></svg>