<svg width="50" height="50" fill="none" xmlns="http://www.w3.org/2000/svg"><circle cx="25" cy="25" r="25" fill="#FFA14D"/><path d="M25 8.334c4.528 0 5.093.016 6.87.1 1.775.083 2.983.361 4.046.775 1.1.423 2.027.996 2.954 1.921a8.18 8.18 0 011.921 2.954c.412 1.061.692 2.271.775 4.046.079 1.777.1 2.342.1 6.87 0 4.529-.016 5.094-.1 6.87-.083 1.775-.363 2.984-.775 4.047a8.14 8.14 0 01-1.921 2.953 8.19 8.19 0 01-2.954 1.922c-1.061.412-2.271.692-4.046.775-1.777.078-2.342.1-6.87.1-4.529 0-5.094-.017-6.87-.1-1.775-.083-2.984-.363-4.047-.775a8.15 8.15 0 01-2.953-1.922 8.173 8.173 0 01-1.922-2.953c-.413-1.062-.692-2.272-.775-4.047-.078-1.776-.1-2.341-.1-6.87 0-4.528.017-5.093.1-6.87.083-1.776.362-2.983.775-4.046a8.133 8.133 0 011.922-2.954 8.162 8.162 0 012.953-1.921c1.063-.414 2.27-.692 4.047-.775 1.776-.079 2.341-.1 6.87-.1zm0 8.333a8.333 8.333 0 100 16.667 8.333 8.333 0 000-16.667zm10.833-.417a2.083 2.083 0 10-4.167 0 2.083 2.083 0 004.167 0zM25 20a5 5 0 110 10 5 5 0 010-10z" fill="#fff"/></svg>