<svg width="50" height="50" fill="none" xmlns="http://www.w3.org/2000/svg"><path d="M25 0a25 25 0 100 50 25 25 0 000-50zm12.681 27.708a47.555 47.555 0 013.444 3.465 9.82 9.82 0 011.232 1.77c.475.922.046 1.932-.778 1.987h-5.12a3.957 3.957 0 01-3.263-1.328c-.709-.72-1.366-1.49-2.048-2.235a4.788 4.788 0 00-.922-.821 1.07 1.07 0 00-1.705.416 5.366 5.366 0 00-.54 2.396c-.056 1.208-.416 1.523-1.631 1.58a13.115 13.115 0 01-7.33-1.577 16.18 16.18 0 01-4.931-4.616 62.22 62.22 0 01-6.492-11.573c-.41-.913-.11-1.4.896-1.419 1.666-.032 3.342-.028 5.014 0a1.473 1.473 0 011.392 1.042 31.119 31.119 0 003.399 6.298c.342.54.777 1.015 1.285 1.403a.78.78 0 001.325-.39c.168-.422.267-.868.295-1.322.155-1.54.128-3.094-.081-4.629a1.93 1.93 0 00-1.645-1.77c-.488-.093-.417-.275-.18-.554a1.842 1.842 0 011.573-.781h5.786c.913.18 1.117.588 1.24 1.507v6.43c-.01.356.179 1.41.818 1.642.511.169.849-.242 1.155-.566a20 20 0 003.261-5.009c.39-.794.73-1.614 1.055-2.436a1.25 1.25 0 011.309-.897l5.572.006c.165-.004.33.005.493.03.938.16 1.197.564.907 1.48a13.881 13.881 0 01-2.215 3.841c-.931 1.287-1.924 2.53-2.846 3.822-.843 1.183-.776 1.778.276 2.808z" fill="#FFA14D"/></svg>