<svg width="218" height="26" fill="none" xmlns="http://www.w3.org/2000/svg"><path d="M5.488 25H.376V.988h16.992v4.5H5.488v5.076h11.628v4.5H5.488V25z" fill="#44C697"/><path d="M37.142 25H32.57v-2.196c-1.56 1.752-3.6 2.628-6.12 2.628-1.872 0-3.276-.48-4.212-1.44-.936-.96-1.404-2.304-1.404-4.032V7.612h4.572V18.16c0 2.136 1.068 3.204 3.204 3.204 1.608 0 2.928-.66 3.96-1.98V7.612h4.572V25zm9.112 0h-4.572V7.612h4.572v2.376c.648-.816 1.476-1.488 2.484-2.016s2.028-.792 3.06-.792v4.464c-.312-.072-.732-.108-1.26-.108-.768 0-1.584.192-2.448.576-.864.384-1.476.852-1.836 1.404V25zm24.709 0H66.39V14.488c0-2.16-1.068-3.24-3.204-3.24-1.656 0-2.976.684-3.96 2.052V25h-4.572V7.612h4.572V9.88c1.512-1.8 3.54-2.7 6.084-2.7 1.872 0 3.276.492 4.212 1.476.96.984 1.44 2.34 1.44 4.068V25zM77.77 5.74c-.744 0-1.392-.264-1.944-.792-.528-.552-.792-1.2-.792-1.944a2.6 2.6 0 01.792-1.908c.552-.528 1.2-.792 1.944-.792.768 0 1.416.264 1.944.792a2.6 2.6 0 01.792 1.908c0 .744-.264 1.392-.792 1.944-.528.528-1.176.792-1.944.792zM80.074 25h-4.572V7.612h4.572V25zm10.366.432c-1.608 0-2.832-.408-3.672-1.224-.84-.816-1.26-1.992-1.26-3.528v-9.072h-2.88V7.612h2.88V2.86h4.608v4.752h3.528v3.996h-3.528v7.848c0 .552.144 1.008.432 1.368.288.36.672.54 1.152.54.72 0 1.248-.168 1.584-.504l.972 3.456c-.84.744-2.112 1.116-3.816 1.116zM113.08 25h-4.572v-2.196c-1.56 1.752-3.6 2.628-6.12 2.628-1.872 0-3.276-.48-4.212-1.44-.936-.96-1.404-2.304-1.404-4.032V7.612h4.572V18.16c0 2.136 1.068 3.204 3.204 3.204 1.608 0 2.928-.66 3.96-1.98V7.612h4.572V25zm9.112 0h-4.572V7.612h4.572v2.376c.648-.816 1.476-1.488 2.484-2.016s2.028-.792 3.06-.792v4.464c-.312-.072-.732-.108-1.26-.108-.768 0-1.584.192-2.448.576-.864.384-1.476.852-1.836 1.404V25zm16.572.432c-2.688 0-4.908-.84-6.66-2.52-1.752-1.68-2.628-3.888-2.628-6.624 0-2.568.84-4.728 2.52-6.48 1.704-1.752 3.864-2.628 6.48-2.628 2.592 0 4.692.888 6.3 2.664 1.608 1.752 2.412 4.056 2.412 6.912v1.008h-12.924c.144 1.152.66 2.112 1.548 2.88.888.768 2.04 1.152 3.456 1.152.768 0 1.596-.156 2.484-.468.912-.312 1.632-.732 2.16-1.26l2.016 2.952c-1.752 1.608-4.14 2.412-7.164 2.412zm3.996-10.764c-.072-.984-.468-1.872-1.188-2.664-.696-.792-1.728-1.188-3.096-1.188-1.296 0-2.304.396-3.024 1.188-.72.768-1.14 1.656-1.26 2.664h8.568zm11.982 9.864c-.576.576-1.26.864-2.052.864s-1.476-.288-2.052-.864c-.576-.576-.864-1.26-.864-2.052s.288-1.476.864-2.052c.576-.576 1.26-.864 2.052-.864s1.476.288 2.052.864c.576.576.864 1.26.864 2.052s-.288 1.476-.864 2.052zm9.667.9c-1.608 0-2.832-.408-3.672-1.224-.84-.816-1.26-1.992-1.26-3.528v-9.072h-2.88V7.612h2.88V2.86h4.608v4.752h3.528v3.996h-3.528v7.848c0 .552.144 1.008.432 1.368.288.36.672.54 1.152.54.72 0 1.248-.168 1.584-.504l.972 3.456c-.84.744-2.112 1.116-3.816 1.116zm14.504 0c-2.688 0-4.908-.84-6.66-2.52-1.752-1.68-2.628-3.888-2.628-6.624 0-2.568.84-4.728 2.52-6.48 1.704-1.752 3.864-2.628 6.48-2.628 2.592 0 4.692.888 6.3 2.664 1.608 1.752 2.412 4.056 2.412 6.912v1.008h-12.924c.144 1.152.66 2.112 1.548 2.88.888.768 2.04 1.152 3.456 1.152.768 0 1.596-.156 2.484-.468.912-.312 1.632-.732 2.16-1.26l2.016 2.952c-1.752 1.608-4.14 2.412-7.164 2.412zm3.996-10.764c-.072-.984-.468-1.872-1.188-2.664-.696-.792-1.728-1.188-3.096-1.188-1.296 0-2.304.396-3.024 1.188-.72.768-1.14 1.656-1.26 2.664h8.568zm13.994 10.764c-1.512 0-2.964-.24-4.356-.72-1.368-.48-2.508-1.14-3.42-1.98l1.98-3.204c.672.624 1.584 1.176 2.736 1.656 1.152.48 2.244.72 3.276.72.96 0 1.68-.168 2.16-.504.504-.336.756-.792.756-1.368 0-.432-.264-.78-.792-1.044-.504-.288-1.14-.492-1.908-.612-.744-.12-1.572-.3-2.484-.54a17.737 17.737 0 01-2.484-.864c-.744-.336-1.38-.864-1.908-1.584-.504-.744-.756-1.656-.756-2.736 0-1.536.636-2.832 1.908-3.888 1.272-1.056 3.012-1.584 5.22-1.584 2.688 0 5.028.792 7.02 2.376l-1.836 3.132c-.552-.576-1.296-1.056-2.232-1.44a7.437 7.437 0 00-2.916-.576c-.816 0-1.476.168-1.98.504-.504.312-.756.72-.756 1.224 0 .384.252.708.756.972.504.24 1.14.42 1.908.54.768.12 1.596.312 2.484.576.888.24 1.716.54 2.484.9.768.336 1.404.888 1.908 1.656.504.768.756 1.704.756 2.808 0 1.632-.672 2.976-2.016 4.032-1.32 1.032-3.156 1.548-5.508 1.548zm16.724 0c-1.608 0-2.832-.408-3.672-1.224-.84-.816-1.26-1.992-1.26-3.528v-9.072h-2.88V7.612h2.88V2.86h4.608v4.752h3.528v3.996h-3.528v7.848c0 .552.144 1.008.432 1.368.288.36.672.54 1.152.54.72 0 1.248-.168 1.584-.504l.972 3.456c-.84.744-2.112 1.116-3.816 1.116z" fill="#1E2E36"/></svg>