<svg width="454" height="179" fill="none" xmlns="http://www.w3.org/2000/svg"><path d="M24.228 172.908l8.022-11.307c.554-.827 1.384-1.103 2.214-1.103.83 0 1.66.552 2.212 1.379l6.363 11.307h26.556v-23.992a2.475 2.475 0 012.49-2.482h3.32v-3.309c0-.828.552-1.655 1.106-2.207v-4.963a2.475 2.475 0 012.49-2.482 2.475 2.475 0 012.49 2.482v4.412h4.978v-19.58c0-.827.277-1.654 1.107-2.206l4.703-3.309V74.734a2.475 2.475 0 012.49-2.482h6.362l13.554-42.469c.277-1.103 1.383-1.654 2.49-1.654 1.106 0 2.213.827 2.49 1.93l11.618 42.469h6.362a2.475 2.475 0 012.49 2.481v39.16l4.149 4.136c.554.552.83 1.104.83 1.931v19.855h4.426v-4.136a2.476 2.476 0 012.49-2.482 2.476 2.476 0 012.49 2.482v4.412c.829.552 1.383 1.379 1.383 2.206v4.137h2.766a2.476 2.476 0 012.49 2.482v21.234c4.979-3.309 14.108-8.549 22.406-9.1v-3.861a2.476 2.476 0 012.49-2.482h19.641a2.475 2.475 0 012.489 2.482v3.585h8.022c.554 0 .83 0 1.384.276l5.255 3.033 4.703-4.964v-10.203c-1.383-1.655-4.426-6.067-3.873-12.134.83-8.549 8.023-16.822 21.024-25.095v-7.722a2.476 2.476 0 012.49-2.482 2.475 2.475 0 012.489 2.482v7.722l4.703 2.482c2.49-.828 10.235-4.413 11.895-15.995.277-1.103 1.106-2.206 2.49-2.206 1.106-.276 2.213.827 2.766 1.93.276.827.276 1.655.276 2.758l.039.399c.253 2.676.555 5.865 6.877 9.804 5.965-12.098 16.519-35.175 22.449-48.142l.002-.005c2.044-4.468 3.538-7.736 4.105-8.937V37.505c-1.383-1.38-3.872-4.137-4.426-8.273-.83-6.343 2.767-13.789 10.512-21.786V2.482A2.476 2.476 0 01313.857 0a2.475 2.475 0 012.489 2.482V7.17c7.746 8.549 11.066 16.27 10.236 22.889-.554 3.86-2.49 6.343-3.873 7.446v17.65l34.025 65.357a4516.54 4516.54 0 0016.321-14.34c2.213-1.931 4.703-8.273 5.809-11.858.277-1.104 1.383-1.931 2.49-1.931 1.106 0 2.213.827 2.489 1.655 1.66 5.24 4.15 9.376 5.533 10.479l17.704-20.959v-5.515a2.476 2.476 0 012.49-2.482 2.475 2.475 0 012.489 2.482v5.515l8.576 10.755c2.766 1.655 17.427 11.307 18.81 24.544.83 6.894-1.936 13.237-8.298 19.304v34.471h22.406c.206.565.575 2.03.402 3.376-.173 1.346-2.363 1.987-3.437 2.14h-22.13a2.476 2.476 0 01-2.49-2.482V137.61c0-.828.277-1.379.83-1.931 5.533-4.964 8.022-10.479 7.469-15.719-1.383-11.858-16.598-20.958-16.598-20.958a1.435 1.435 0 00-.415-.276 1.46 1.46 0 01-.415-.276l-7.468-9.376-16.875 20.131c-.138.138-.346.276-.553.414-.208.138-.415.276-.553.414-4.426 1.378-7.746-3.034-9.959-7.446-1.383 3.033-3.043 6.067-4.979 7.997-1.307 1.158-4.596 3.988-8.066 6.974-3.14 2.702-6.429 5.532-8.532 7.366 4.15 3.861 11.895 12.134 11.619 22.337-.277 7.171-4.703 13.789-13.002 19.304v9.377a2.475 2.475 0 01-2.49 2.482 2.475 2.475 0 01-2.489-2.482v-11.307c0-.276 0-.276.276-.552 0-.275.277-.275.277-.275l.277-.276s0-.276.276-.276c7.469-4.688 11.619-10.203 11.895-15.995.554-10.755-11.895-20.131-11.895-20.131l-.83-.827-35.684-68.943c-.277-.275-.277-.827-.277-1.103v-19.58c0-.827.553-1.654 1.106-2.206 0 0 2.213-1.654 2.767-4.963.276-3.034-.554-8.273-6.916-16.27-.138 0-.277.068-.415.137-.138.069-.277.138-.415.138h-.553c-6.639 7.446-7.746 12.685-7.469 15.719.553 3.86 3.32 5.515 3.32 5.515.829.552 1.383 1.38 1.383 2.206v19.028c0 .276 0 .828-.277 1.104-.038.076-.452.986-1.159 2.538-4.4 9.67-20.144 44.272-27.057 57.58-.277.551-.83 1.103-1.66 1.378-.553.276-1.383 0-1.936-.275-5.533-2.758-8.299-5.792-9.959-8.273-4.702 9.1-13.278 11.03-13.831 11.03-.553 0-1.107 0-1.66-.275l-5.809-3.034c-14.385 9.101-17.981 16.271-18.534 20.959-.553 5.239 2.766 8.548 3.043 8.824.553.552.83 1.103.83 1.931v12.134c0 .551-.277 1.378-.83 1.654l-6.639 7.17c-.83.828-2.213 1.103-3.043.552l-6.639-3.861h-9.682a2.476 2.476 0 01-2.49-2.482v-3.585h-14.384v3.585c0 .827-.277 1.379-.83 1.93-.355.354-.823.481-1.259.599a3.68 3.68 0 00-.677.229c-9.599-.479-21.903 8.173-25.177 10.475-.5.352-.79.556-.826.556-.83.551-1.937.827-2.767.275-.83-.551-1.383-1.379-1.383-2.206v-23.716h-2.766a2.476 2.476 0 01-2.49-2.482v-3.309a3.235 3.235 0 00-.338-.276c-.246-.184-.492-.368-.492-.552h-7.469a2.475 2.475 0 01-2.489-2.482v-21.51l-4.15-4.136c-.553-.552-.829-1.103-.829-1.931v-37.78h-5.81c-1.106 0-2.213-.827-2.489-1.93l-9.959-36.126-11.618 35.85c-.277 1.103-1.383 1.654-2.49 1.654h-5.809v39.436c0 .827-.277 1.654-1.106 2.206l-4.703 3.309v20.683a2.475 2.475 0 01-2.49 2.482h-8.299c0 .275-.276.275-.553.275v3.034a2.475 2.475 0 01-2.49 2.482h-3.319v23.992a2.475 2.475 0 01-2.49 2.482H40.833c-.83 0-1.66-.552-2.213-1.379l-4.979-8.825-6.362 9.101c-.554.551-1.384 1.103-2.213 1.103H2.659c-.83-.189-2.523-.946-2.653-2.466-.13-1.52 1.894-2.666 2.922-3.05h21.3v.276z" fill="#1A2D84"/></svg>