<svg width="166" height="166" fill="none" xmlns="http://www.w3.org/2000/svg"><path d="M123.594 41.967c22.894 22.895 22.894 60.014 0 82.909-22.895 22.895-60.015 22.895-82.91 0-22.894-22.895-22.894-60.014 0-82.91 22.895-22.894 60.015-22.894 82.91 0z" stroke="#fff"/><path d="M84.029 9.835l-.655 9.414 1.215.084.307-4.413 4.553.316-.307 4.414 1.23.085.654-9.413-1.23-.085-.273 3.938-4.553-.317.274-3.938-1.215-.085zm14.231 8.36l.34 3.116 1.27.283-1.092-9.91-1.435-.32-5.18 8.515 1.23.274 1.602-2.685 3.266.727zm-2.813-1.601l1.495-2.464c.303-.52.578-1.048.836-1.564l.027.006c.018.564.033 1.14.105 1.788l.312 2.851-2.775-.617zm10.081-3.167l-3.414 8.797 1.136.44 3.044-7.844 4.085 1.586-3.044 7.844 1.135.44 3.414-8.796-6.356-2.467zm5.331 12.35l1.062.596 1.85-3.296c.21.198.496.375.814.553 1.037.582 2.124.791 3.022.508.654-.194 1.203-.657 1.621-1.402.411-.732.478-1.481.246-2.125-.242-.714-.874-1.39-1.924-1.98a14.124 14.124 0 00-2.127-.985l-4.564 8.131zm5.194-6.765c.211.053.585.216 1.049.476 1.172.658 1.646 1.614 1.037 2.701-.638 1.135-1.768 1.32-3.05.6-.354-.199-.634-.388-.831-.579l1.795-3.198zm7.785 11.548l-.996 2.971 1.036.79 3.155-9.459-1.17-.89-8.267 5.564 1.002.764 2.578-1.768 2.662 2.027zm-1.885-2.633l2.389-1.612c.493-.346.963-.71 1.414-1.07l.022.017c-.219.519-.447 1.05-.653 1.667l-.91 2.72-2.262-1.722zm3.636 7.86c.246.328.66.824 1.252 1.42 1.085 1.093 2.033 1.651 2.924 1.694a2.542 2.542 0 001.903-.765c.994-.987.781-2.255.308-3.048l.02-.02c.959.45 1.949.314 2.595-.327.527-.523.717-1.126.63-1.73-.076-.753-.48-1.457-1.338-2.322-.601-.606-1.253-1.142-1.707-1.441l-6.587 6.54zm6.859-5.093c.168.11.424.309.819.706.868.874 1.152 1.776.367 2.555-.646.642-1.656.578-2.563-.336l-.779-.785 2.156-2.14zm-2.812 2.792l.71.715c.937.944 1.339 2.103.425 3.01-.974.968-2.12.468-3.008-.426-.306-.308-.543-.566-.68-.765l2.553-2.535zm9.807 3.306l-3.19 2.374c-1.212.903-2.725 1.942-3.772 1.779a2.162 2.162 0 01-.998-.497l-.694.709c.326.438.832.742 1.22.89 1.513.531 3.394-.764 5.034-1.984l2.291-1.706 1.864 2.505-6.75 5.023.736.989 7.569-5.634-3.31-4.448zm4.664 14.442l-1.784-3.205 2.606-1.45 1.886 3.389.893-.497-2.478-4.453-8.246 4.588 2.58 4.637.893-.497-1.987-3.572 2.972-1.654 1.784 3.205.881-.49zm5.245 1.494l-8.784 3.447.445 1.134 4.119-1.616 1.667 4.248-4.118 1.616.45 1.147 8.783-3.447-.45-1.147-3.675 1.443-1.667-4.249 3.675-1.442-.445-1.134zm3.773 10.209l-9.218 2.015.278 1.272 5.213 1.884c1.163.405 2.367.801 3.478 1.031l-.005.044c-1.183.159-2.28.384-3.771.71l-3.925.858.245 1.121 9.218-2.014-.26-1.19-5.398-1.945c-1.24-.43-2.364-.787-3.423-1.043l.007-.03a58.48 58.48 0 003.922-.743l3.884-.849-.245-1.121zm2.281 11.663l-9.422.51.07 1.3 4.843 2.696c1.083.586 2.208 1.17 3.267 1.576l-.011.043c-1.194-.034-2.313.012-3.837.095l-4.012.217.062 1.146 9.422-.51-.065-1.216-5.016-2.785c-1.156-.624-2.208-1.156-3.212-1.579l.012-.029a58.53 58.53 0 003.991-.103l3.97-.215-.062-1.146zm2.065 1.64c-.918.12-1.462.697-1.4 1.843.064 1.188.668 1.716 1.594 1.737l-.051-.937c-.464-.031-.878-.163-.912-.806-.036-.657.39-.82.82-.9l-.051-.936zm-12.639 20.712l5.271-2.082 4.042 3.603.236-1.38-1.963-1.642a20.288 20.288 0 00-1.429-1.11l.007-.042a33.7 33.7 0 001.719-.587l2.391-.855.238-1.394-5.063 1.947-4.219-3.648-.236 1.38 1.851 1.467c.732.623 1.184.97 1.677 1.324l-.005.027c-.588.198-1.15.415-2.019.763l-2.259.835-.239 1.394zm8.589 4.773l-8.953-2.98-.411 1.235 3.517 4.284c.793.943 1.625 1.899 2.462 2.664l-.026.036c-1.098-.469-2.157-.836-3.605-1.318l-3.812-1.269-.362 1.089 8.952 2.981.385-1.156-3.645-4.43c-.846-1.005-1.63-1.886-2.41-2.647l.023-.022c1.169.478 2.329.893 3.75 1.367l3.772 1.255.363-1.089zm-12.427 6.817l-.549 1.088 3.375 1.702c-.188.218-.352.512-.516.837-.536 1.063-.696 2.158-.374 3.042.223.645.71 1.173 1.472 1.557.75.379 1.502.413 2.135.152.702-.273 1.349-.935 1.891-2.01.442-.875.713-1.6.891-2.169l-8.325-4.199zm6.989 4.889c-.045.213-.19.594-.43 1.069-.605 1.2-1.54 1.717-2.652 1.156-1.163-.587-1.397-1.708-.735-3.021.183-.362.359-.65.542-.855l3.275 1.651zm-2.562 7.123l-7.013-1.024c-.248-.035-.38-.091-.497-.291-.386-.624-.833-1.628-.289-2.443.119-.173.21-.281.289-.345l-.747-.668c-.133.095-.284.263-.458.517-.477.692-.543 1.479-.259 2.423.353 1.043 1.207 2.345 1.951 3.486l2.869 4.374.73-1.06-2.44-3.467c-.418-.577-.764-1.037-1.073-1.453l.016-.023c.588.133 1.165.258 1.761.38l4.373.735.787-1.141zm-13.246 2.391l-.816.904 2.805 2.534c-.24.161-.475.401-.719.671-.798.883-1.242 1.897-1.164 2.835.044.681.374 1.319 1.008 1.891.623.563 1.339.794 2.019.71.749-.078 1.548-.545 2.355-1.438a14.056 14.056 0 001.432-1.857l-6.92-6.25zm5.449 6.562c-.099.194-.34.523-.697.918-.9.998-1.938 1.249-2.863.414-.966-.873-.896-2.017.089-3.108.273-.301.519-.531.749-.682l2.722 2.458zm-5.112 6.792l-6.196-7.116-.919.799 5.525 6.346-2.861 2.492.671.77 3.78-3.291zm-5.829 4.999l-5.21-7.867-1.086.719.127 5.541c.043 1.231.109 2.497.296 3.616l-.043.012c-.575-1.046-1.182-1.988-2.025-3.26l-2.218-3.35-.957.634 5.21 7.867 1.016-.673-.138-5.735c-.047-1.313-.121-2.49-.265-3.569l.031-.004a57.648 57.648 0 002.11 3.388l2.195 3.315.957-.634zm-9.924 6.256l-1.324-2.889c-.963-2.1-2.585-1.941-3.717-1.422a4.559 4.559 0 00-1.817 1.48l-.025.012-1.669-3.64-1.12.514 3.933 8.577 1.12-.514-1.868-4.072a3.722 3.722 0 011.471-1.26c1.209-.554 2.123-.172 2.66.998l1.249 2.724 1.107-.508zm-15.782 1.853l3.509-1.066.867 2.853-3.71 1.128.297.978 4.876-1.482-2.743-9.028-5.077 1.542.297.978 3.911-1.188.989 3.255-3.509 1.066.293.964zm-10.067-2.202c.443-.317 1.163-.596 1.894-.721 2.263-.387 3.824.851 4.214 3.128.417 2.443-.793 4.084-2.974 4.457-.773.132-1.45.078-1.943-.065l-.122 1.029c.346.111 1.12.235 2.279.037 2.884-.494 4.52-2.804 4.022-5.716-.521-3.05-2.778-4.368-5.4-3.92-1.131.193-1.977.565-2.38.861l.41.91zm-2.094 8.432l-.328-9.43-1.203.042.15 4.323-.392.014c-1.595.055-2.226-.777-2.703-2.007-.278-.733-.573-1.564-.93-2.195l-1.316.045c.449.825.745 1.683 1.128 2.637.534 1.256 1.169 2.186 2.73 2.342l-3.418 4.448 1.469-.051 3.087-4.296.377-.013.146 4.183 1.203-.042zm-13.908-.101c2.503.29 4.58-1.442 4.925-4.418.33-2.837-1.186-4.958-3.662-5.245-2.391-.278-4.55 1.205-4.926 4.431-.323 2.781 1.105 4.935 3.663 5.232zm.17-.981c-2.016-.234-2.763-2.294-2.547-4.158.247-2.128 1.537-3.768 3.456-3.545 1.906.222 2.782 2.141 2.55 4.144-.24 2.058-1.456 3.791-3.458 3.559zm-7.952-.403l2.33-9.143-1.181-.301-2.077 8.153-3.677-.936-.252.99 4.857 1.237zm-10.869-3.167c2.339.938 4.797-.188 5.912-2.968 1.063-2.651.158-5.096-2.155-6.023-2.235-.897-4.708-.034-5.917 2.981-1.042 2.599-.231 5.051 2.16 6.01zm.422-.902c-1.884-.755-2.064-2.939-1.366-4.68.798-1.989 2.473-3.232 4.266-2.513 1.78.714 2.121 2.797 1.371 4.668-.771 1.923-2.4 3.276-4.271 2.525zm-12.632-5.297l5.439-7.712-.995-.702-4.85 6.876-3.58-2.525 4.849-6.876-.996-.702-5.438 7.711 5.571 3.93zm-2.057-13.149l-.89-.833-2.584 2.759c-.156-.243-.392-.482-.657-.731-.87-.814-1.875-1.276-2.814-1.216-.682.033-1.325.351-1.91.974-.573.613-.817 1.324-.746 2.005.064.751.517 1.558 1.395 2.381.716.67 1.335 1.135 1.831 1.466l6.374-6.805zm-6.66 5.329c-.192-.103-.517-.35-.906-.714-.98-.918-1.213-1.961-.36-2.87.89-.95 2.031-.859 3.104.146.296.277.523.528.669.76l-2.508 2.678zm-9.493-8.306c1.563 1.976 4.255 2.221 6.606.363 2.24-1.771 2.67-4.342 1.124-6.297-1.493-1.889-4.068-2.369-6.616-.355-2.197 1.737-2.712 4.268-1.114 6.289zm.814-.573c-1.259-1.592-.329-3.577 1.143-4.74 1.68-1.329 3.752-1.575 4.95-.059 1.19 1.504.45 3.481-1.131 4.731-1.625 1.285-3.711 1.649-4.962.068zm-7.412-8.661l.734-.408c.983 1.536 3.011 2.906 5.715 1.402 2.606-1.45 2.55-3.71 1.7-5.496l.77-.429-.571-1.028-.771.429c-1.071-1.695-3.029-2.881-5.622-1.437-2.594 1.443-2.68 3.765-1.786 5.543l-.734.409.565 1.015zm7.383-4.092c.552 1.279.374 2.916-1.596 4.012-2.14 1.191-3.615.298-4.276-.745l5.872-3.267zm-6.437 2.252c-.599-1.221-.507-2.842 1.609-4.02 2.043-1.136 3.505-.38 4.264.752l-5.873 3.268zm-4.525-5.841l8.883-3.182-.439-1.226-5.411-1.199c-1.206-.252-2.451-.49-3.582-.576l-.001-.044c1.153-.309 2.212-.674 3.649-1.188l3.782-1.355-.387-1.081-8.883 3.182.41 1.147 5.603 1.235c1.286.268 2.447.477 3.53.594l-.004.031a58.711 58.711 0 00-3.794 1.24l-3.743 1.341.387 1.081zm-3.843-11.726l3.905-.745c1.486-.283 3.3-.558 4.17.046.249.18.543.524.682.882l.934-.335c-.102-.536-.425-1.03-.71-1.333-1.13-1.138-3.387-.793-5.395-.41l-2.805.535-.585-3.067 8.265-1.576-.231-1.21-9.269 1.767 1.039 5.446zm7.703-11.096c-.258-.129-.457-.19-.7-.276-.91-.294-2.307-.496-2.994-1.109-.351-.32-.497-.748-.525-1.335l-.041-.895 4.084-.19-.057-1.216-9.3.431c-.097.621-.128 1.463-.091 2.26.055 1.19.35 2.1.852 2.666.458.511 1.131.817 1.956.778 1.287-.06 2.083-1.021 2.225-2.191l.042-.002c.097.276.278.548.512.761.805.734 2.13.924 3.226 1.28.313.098.613.21.871.338l-.06-1.3zm-5.197-3.572c.025.237.043.629.062 1.035.062 1.328-.55 2.365-1.682 2.418-1.3.06-1.81-.94-1.865-2.142a5.66 5.66 0 01.059-1.152l3.426-.159zm52.76-11.748V95.13h-5.428v5.29h17.572v-5.29h-5.566V68.22H62.299v5.382h4.784zm37.767-5.382H82.034v5.98h13.57l-11.407 26.22h6.945l13.708-31.234v-.966z" fill="#fff"/></svg>