<svg width="130" height="52" fill="none" xmlns="http://www.w3.org/2000/svg"><g clip-path="url(#clip0_1911_5596)"><path d="M3.86 19.272l.58-.814c.04-.06.1-.08.16-.08s.12.04.16.1l.46.813h1.92v-1.726c0-.1.08-.179.18-.179h.24v-.238c0-.06.04-.12.08-.159v-.357c0-.1.08-.179.18-.179.1 0 .18.08.18.179v.317h.36V15.54c0-.06.02-.119.08-.158l.34-.239v-2.937c0-.1.08-.179.18-.179h.46l.98-3.056c.02-.08.1-.12.18-.12.08 0 .16.06.18.14l.84 3.056h.46c.1 0 .18.08.18.179v2.818l.3.298c.04.04.06.08.06.139v1.429h.32v-.298c0-.1.08-.179.18-.179.1 0 .18.08.18.179v.318c.06.04.1.099.1.158v.298h.2c.1 0 .18.08.18.179v1.528c.36-.238 1.02-.615 1.62-.655v-.278c0-.1.08-.178.18-.178h1.42c.1 0 .18.079.18.178v.258h.58c.04 0 .06 0 .1.02l.38.218.34-.357v-.734a1.21 1.21 0 01-.28-.874c.06-.615.58-1.21 1.52-1.806v-.555c0-.1.08-.179.18-.179.1 0 .18.08.18.179v.555l.34.179c.18-.06.74-.318.86-1.151.02-.08.08-.159.18-.159.08-.02.16.06.2.139.02.06.02.119.02.198.02.199.02.437.5.735.58-1.171 1.76-3.771 1.92-4.109v-1.19c-.1-.1-.28-.298-.32-.596-.06-.456.2-.992.76-1.568v-.357c0-.1.08-.179.18-.179.1 0 .18.08.18.179v.337c.56.616.8 1.171.74 1.648a.84.84 0 01-.28.536v1.27L27.9 15.5c.32-.278 1-.874 1.18-1.032.16-.14.34-.596.42-.854.02-.08.1-.139.18-.139.08 0 .16.06.18.12.12.376.3.674.4.753l1.28-1.508v-.397c0-.1.08-.179.18-.179.1 0 .18.08.18.18v.396l.62.774c.2.12 1.26.814 1.36 1.767.06.496-.14.952-.6 1.389v2.48h1.62l3.6-6.827a19.876 19.876 0 00-16.7-9.07c-9.66 0-17.7 6.827-19.48 15.898h1.54v.02z" fill="#3D4FA2"/><path d="M33.22 19.648c-.1 0-.18-.079-.18-.178v-2.74c0-.059.02-.098.06-.138.4-.357.58-.754.54-1.131-.1-.854-1.2-1.509-1.2-1.509-.02-.02-.04-.02-.06-.04l-.54-.674-1.22 1.449c-.02.02-.06.04-.08.06-.32.098-.56-.22-.72-.537-.1.219-.22.437-.36.576-.18.159-.88.754-1.2 1.032.3.278.86.873.84 1.608-.02.516-.34.992-.94 1.389v.675c0 .099-.08.178-.18.178-.1 0-.18-.079-.18-.178v-.814c0-.02 0-.02.02-.04 0-.02.02-.02.02-.02l.02-.02s0-.02.02-.02c.54-.337.84-.734.86-1.15.04-.774-.86-1.45-.86-1.45l-.06-.059-2.58-4.962c-.02-.02-.02-.06-.02-.079v-1.41c0-.059.04-.118.08-.158 0 0 .16-.119.2-.357.02-.219-.04-.596-.5-1.171-.02 0-.04.02-.06.02h-.04c-.48.536-.56.913-.54 1.13a.57.57 0 00.24.398c.06.04.1.1.1.159v1.37c0 .019 0 .059-.02.079-.02.04-1.46 3.215-2.04 4.326-.02.04-.06.08-.12.1-.04.02-.1 0-.14-.02-.4-.199-.6-.417-.72-.596-.34.655-.96.794-1 .794-.04 0-.08 0-.12-.02l-.42-.218c-1.04.655-1.3 1.17-1.34 1.508a.8.8 0 00.22.635c.04.04.06.08.06.14v.873c0 .04-.02.099-.06.119l-.48.516c-.06.06-.16.08-.22.04l-.48-.278h-.7c-.1 0-.18-.08-.18-.179v-.258H15.9v.258c0 .06-.02.1-.06.139-.04.04-.1.04-.14.06-.8-.04-1.86.793-1.88.793-.06.04-.14.06-.2.02-.06-.04-.1-.1-.1-.159v-1.706h-.2a.18.18 0 01-.18-.18v-.237c-.02-.02-.06-.04-.06-.06h-.54c-.1 0-.18-.08-.18-.178V15.62l-.3-.298a.18.18 0 01-.06-.14v-2.718h-.42c-.08 0-.16-.06-.18-.14l-.72-2.6-.84 2.581c-.02.08-.1.12-.18.12h-.42v2.837c0 .06-.02.12-.08.159l-.34.238v1.489c0 .099-.08.178-.18.178h-.6c0 .02-.02.02-.04.02v.218c0 .1-.08.18-.18.18h-.24v1.726c0 .1-.08.178-.18.178H5.2c-.06 0-.12-.04-.16-.099l-.36-.635-.46.655c-.04.04-.1.08-.16.08H2.44c-.2 1.11-.3 2.282-.3 3.453 0 10.876 8.9 19.708 19.86 19.708.24 0 .5 0 .74-.02l12.08-23.142h-1.6zm16.66-7.967V4.179c.08-.02.16-.02.24-.04.08 0 .14-.02.2-.02.1 0 .2 0 .3.02.1.02.2.06.28.12a.84.84 0 01.22.237c.06.1.08.258.08.417v6.748h-1.32v.02zm5.06.1c-.26 0-.48-.06-.66-.18a1.25 1.25 0 01-.42-.436l-.82-1.41a5.343 5.343 0 00-.68-.952c-.22-.258-.5-.437-.8-.516V7.275c.16-.04.28-.1.4-.199.12-.079.22-.178.32-.297.1-.12.2-.258.3-.417.1-.159.22-.338.36-.516l.52-.734c.18-.278.36-.497.58-.675.22-.179.46-.278.74-.278.22 0 .4.06.56.159.16.099.22.277.22.516 0 .099 0 .158-.02.178-.24 0-.44.06-.6.199a2.4 2.4 0 00-.42.476l-.64.933c-.14.238-.3.456-.48.655a1.47 1.47 0 01-.72.437c.32.099.6.258.8.476.22.218.42.496.6.814l1.58 2.62c-.16.079-.3.138-.46.158-.06 0-.1.02-.14.02-.04-.02-.08-.02-.12-.02zm8.14-3.891c0 .536-.06 1.052-.2 1.528-.12.477-.32.894-.6 1.27-.28.358-.62.656-1.06.854-.42.219-.94.318-1.54.318-.6 0-1.12-.1-1.54-.318a2.718 2.718 0 01-1.02-.873 3.607 3.607 0 01-.58-1.25 6.115 6.115 0 01-.18-1.509c0-.516.06-1.012.2-1.488.14-.477.34-.894.62-1.231.28-.357.64-.635 1.06-.853.44-.219.94-.318 1.54-.318.58 0 1.08.1 1.5.298.42.198.76.476 1.02.833.26.358.46.755.58 1.23.14.477.2.973.2 1.51zm-1.36.02c0-.377-.04-.734-.1-1.072a2.954 2.954 0 00-.32-.893 1.969 1.969 0 00-.6-.615c-.26-.159-.56-.218-.92-.218-.38 0-.7.079-.96.218-.26.159-.46.357-.62.615-.16.258-.28.556-.34.893-.06.338-.1.695-.1 1.072 0 .377.04.734.1 1.092.06.357.18.655.34.913.16.258.36.476.62.635.26.159.56.238.94.238.36 0 .68-.08.94-.238.26-.159.46-.377.62-.635.16-.258.26-.576.34-.913.02-.358.06-.715.06-1.092zm4.54-.635h3.14V4.179c.08-.02.16-.02.24-.04.08 0 .16-.02.2-.02.1 0 .18 0 .3.02.1.02.2.06.28.119.08.06.16.139.2.238.06.1.08.238.08.417v6.748h-1.3V8.327h-3.14v3.334h-1.32V4.159c.08-.02.16-.02.24-.04.08 0 .14-.02.2-.02.1 0 .2 0 .3.02.1.02.2.06.28.12a.84.84 0 01.22.237c.06.1.08.238.08.417v2.382zm6.5-3.116h4.54c.02.06.02.119.02.158v.18c0 .237-.06.416-.18.535-.12.12-.34.179-.68.179h-2.38v6.45h-1.32V4.159zm10.96 2.183c0 .496-.08.893-.24 1.23-.16.338-.38.596-.66.794-.28.199-.6.338-.96.437-.36.08-.76.139-1.16.139h-.64V11.7h-1.34V4.198c.32-.04.64-.06.98-.079.34-.02.64-.02.94-.02 1.08 0 1.88.179 2.36.556.48.377.72.933.72 1.687zm-1.36.06c0-.239-.04-.457-.12-.616a1.36 1.36 0 00-.34-.417 1.81 1.81 0 00-.52-.238c-.2-.04-.42-.06-.64-.06-.12 0-.24 0-.36.02-.12 0-.24.02-.36.04V7.95h.4c.32 0 .6-.02.84-.079.24-.04.44-.139.6-.238.16-.12.28-.278.38-.457.08-.218.12-.476.12-.774zm4.3 4.208h2.6c.32 0 .54.079.66.217.12.14.18.318.18.516v.16c0 .039 0 .098-.02.178h-4.74V4.159h4.56c.02.06.02.119.02.158v.18c0 .237-.06.416-.18.535-.12.12-.34.179-.68.179h-2.42v2.024h2.46v1.072h-2.46v2.302h.02zm9.9.595c-.04.04-.12.099-.22.158-.1.08-.26.16-.42.219a3.523 3.523 0 01-1.46.278c-.6 0-1.12-.1-1.56-.298-.44-.199-.8-.457-1.08-.814-.28-.337-.5-.754-.62-1.23-.14-.477-.2-.993-.2-1.568 0-.576.06-1.092.2-1.568.14-.477.36-.893.64-1.25.28-.358.64-.636 1.08-.834.44-.199.94-.298 1.54-.298.3 0 .56.04.8.1.24.059.46.138.64.218.18.099.34.178.46.277.12.1.2.18.26.239.04.04.06.079.06.139.02.06.02.099.02.138 0 .14-.04.278-.14.417-.1.14-.2.258-.32.358-.1-.1-.2-.18-.3-.278-.1-.1-.24-.179-.38-.258-.14-.08-.3-.14-.48-.179-.18-.04-.38-.08-.6-.08-.4 0-.74.08-1.02.239-.28.159-.5.377-.66.635-.16.258-.28.556-.36.913-.08.337-.1.675-.1 1.032s.04.714.1 1.052c.08.337.2.635.36.913.18.258.4.476.68.635.28.159.64.238 1.06.238.24 0 .44-.04.62-.1.18-.059.34-.118.48-.198.14-.079.26-.158.36-.238.1-.08.18-.159.24-.218l.16.159c.06.06.1.139.16.218.04.08.08.139.12.218.04.08.04.14.04.179 0 .08-.02.159-.06.218.02.06-.04.14-.1.219zm6.94 0c-.04.04-.12.099-.22.158-.1.08-.26.16-.42.219a3.523 3.523 0 01-1.46.278c-.6 0-1.12-.1-1.56-.298-.44-.199-.8-.457-1.08-.814-.28-.337-.5-.754-.62-1.23-.14-.477-.2-.993-.2-1.568 0-.576.06-1.092.2-1.568.14-.477.36-.893.64-1.25.28-.358.64-.636 1.08-.834.44-.199.94-.298 1.54-.298.3 0 .56.04.8.1.24.059.46.138.64.218.18.099.34.178.46.277.12.1.2.18.26.239.04.04.06.079.06.139.02.06.02.099.02.138 0 .14-.04.278-.14.417-.1.14-.2.258-.32.358-.1-.1-.2-.18-.3-.278-.1-.1-.24-.179-.38-.258-.14-.08-.3-.14-.48-.179-.18-.04-.38-.08-.6-.08-.4 0-.74.08-1.02.239-.28.159-.5.377-.66.635-.16.258-.28.556-.36.913-.08.337-.1.675-.1 1.032s.04.714.1 1.052c.08.337.2.635.36.913.18.258.4.476.68.635.28.159.64.238 1.06.238.24 0 .44-.04.62-.1.18-.059.34-.118.48-.198.14-.079.26-.158.36-.238.1-.08.18-.159.24-.218l.16.159c.06.06.1.139.16.218.04.08.08.139.12.218.04.08.04.14.04.179 0 .08-.02.159-.06.218.02.06-.04.14-.1.219zM50.96 14.46c.22 0 .38.04.5.138.12.1.22.239.28.397l1.86 4.228 1.88-4.188c.1-.218.22-.357.36-.456.14-.08.3-.12.48-.12a2.138 2.138 0 01.68.08l.54 7.463h-1.26l-.38-5.36-1.74 3.732H53l-1.66-3.553-.36 5.18h-1.26l.56-7.462c.06-.02.16-.04.28-.06.12 0 .26-.02.4-.02zm14.76 3.77c0 .537-.06 1.052-.2 1.529a3.55 3.55 0 01-.6 1.27c-.28.357-.62.655-1.06.854-.42.218-.94.317-1.54.317-.6 0-1.12-.1-1.54-.317a2.717 2.717 0 01-1.02-.874 3.605 3.605 0 01-.58-1.25A6.115 6.115 0 0159 18.25c0-.516.06-1.012.2-1.488.14-.477.34-.893.62-1.23.28-.358.64-.636 1.06-.854.44-.218.94-.318 1.54-.318.58 0 1.08.1 1.5.298.42.199.76.476 1.02.834.26.357.46.754.58 1.23.14.457.2.973.2 1.509zm-1.36.02c0-.377-.04-.734-.1-1.071a2.955 2.955 0 00-.32-.893 1.969 1.969 0 00-.6-.616c-.26-.159-.56-.218-.92-.218-.38 0-.7.08-.96.218-.26.16-.46.357-.62.615a2.53 2.53 0 00-.34.894c-.06.337-.1.694-.1 1.071 0 .378.04.735.1 1.092.06.357.18.655.34.913.16.258.36.476.62.635.26.159.56.238.94.238.36 0 .68-.08.94-.238.26-.159.46-.377.62-.635.16-.258.26-.576.34-.913.02-.357.06-.714.06-1.092zm8.58 3.275c-.04.04-.12.1-.22.16-.1.079-.26.158-.42.218-.18.079-.38.138-.62.198s-.52.08-.84.08c-.6 0-1.12-.1-1.56-.298-.44-.199-.8-.457-1.08-.814-.28-.337-.5-.754-.62-1.23-.14-.477-.2-.993-.2-1.569 0-.575.06-1.091.2-1.567.14-.477.36-.894.64-1.25.28-.358.64-.636 1.08-.835.44-.198.94-.297 1.54-.297.3 0 .56.04.8.099.24.06.46.139.64.218.18.1.34.179.46.278.12.1.2.179.26.238.04.04.06.08.06.14.02.059.02.099.02.138 0 .14-.04.278-.14.417-.1.139-.2.258-.32.357-.1-.099-.2-.178-.3-.278-.1-.099-.24-.178-.38-.258-.14-.079-.3-.139-.48-.178a2.74 2.74 0 00-.6-.08c-.4 0-.74.08-1.02.239-.28.158-.5.377-.66.635a2.91 2.91 0 00-.36.913c-.08.337-.1.674-.1 1.032 0 .357.04.714.1 1.052.08.337.2.635.36.913.18.258.4.476.68.635.28.159.64.238 1.06.238.24 0 .44-.04.62-.1.18-.059.34-.118.48-.198.14-.08.26-.159.36-.238.1-.08.18-.159.24-.218l.16.159c.06.059.1.138.16.218.04.08.08.139.12.218.04.08.04.139.04.179 0 .08-.02.159-.06.218.02.08-.02.159-.1.218zm1.88.496V14.52c.08-.02.16-.02.24-.04.08 0 .14-.02.2-.02.1 0 .2 0 .3.02.1.02.2.06.28.12a.83.83 0 01.22.238c.06.099.08.258.08.416v6.748h-1.32v.02zm5.06.1c-.26 0-.48-.06-.66-.18a1.24 1.24 0 01-.42-.436l-.82-1.409a5.347 5.347 0 00-.68-.953c-.24-.258-.5-.436-.8-.516v-1.012c.16-.04.28-.099.4-.198.12-.08.22-.179.32-.298.1-.12.2-.258.3-.417.1-.159.22-.337.36-.516l.52-.734c.18-.278.36-.496.58-.675.22-.179.46-.278.74-.278.22 0 .4.06.56.159.16.1.22.278.22.516 0 .1 0 .159-.02.179-.24 0-.44.06-.6.198a2.4 2.4 0 00-.42.476l-.64.933c-.14.238-.3.457-.48.655a1.47 1.47 0 01-.72.437c.32.1.6.258.8.476.22.219.42.496.6.814l1.58 2.62c-.16.08-.3.139-.46.159-.06 0-.1.02-.14.02-.02-.02-.08-.02-.12-.02zm8.16-3.891c0 .537-.06 1.052-.2 1.529a3.55 3.55 0 01-.6 1.27c-.28.357-.62.655-1.06.854-.42.218-.94.317-1.54.317-.6 0-1.12-.1-1.54-.317a2.717 2.717 0 01-1.02-.874 3.605 3.605 0 01-.58-1.25 6.115 6.115 0 01-.18-1.509c0-.516.06-1.012.2-1.488.14-.477.34-.893.62-1.23.28-.358.64-.636 1.06-.854.44-.218.94-.318 1.54-.318.58 0 1.08.1 1.5.298.42.199.76.476 1.02.834.26.357.46.754.58 1.23.14.457.2.973.2 1.509zm-1.38.02c0-.377-.04-.734-.1-1.071a2.955 2.955 0 00-.32-.893 1.969 1.969 0 00-.6-.616c-.26-.159-.56-.218-.92-.218-.38 0-.7.08-.96.218-.26.16-.46.357-.62.615a2.53 2.53 0 00-.34.894c-.06.337-.1.694-.1 1.071 0 .378.04.735.1 1.092.06.357.18.655.34.913.16.258.36.476.62.635.26.159.56.238.94.238.36 0 .68-.08.94-.238.26-.159.46-.377.62-.635.16-.258.26-.576.34-.913.04-.357.06-.714.06-1.092zm8.5 1.588c0 .417-.08.774-.22 1.052s-.36.496-.62.675c-.28.158-.6.277-.98.357-.38.06-.8.1-1.28.1h-2.14v-7.483c.36-.04.7-.06 1-.08.3-.02.64-.02.98-.02.56 0 1.02.04 1.38.12.38.079.68.198.9.377.22.158.38.357.48.595.1.238.14.496.14.794 0 .258-.04.476-.1.675-.08.198-.16.357-.28.496-.12.139-.24.258-.36.337-.14.1-.26.16-.38.199.14.04.28.1.46.159.16.079.32.178.48.317.16.14.28.318.38.516.1.218.16.496.16.814zm-1.7-3.454a.96.96 0 00-.12-.496.923.923 0 00-.32-.297c-.14-.08-.3-.12-.5-.16-.2-.039-.4-.039-.64-.039-.16 0-.3 0-.4.02-.1 0-.2.02-.26.02v2.243h.88c.4 0 .74-.12.98-.338.26-.218.38-.536.38-.953zm-2.22 4.645h.66c.3 0 .56-.02.8-.04.24-.04.44-.1.6-.179.16-.099.3-.218.38-.377.1-.158.14-.377.14-.635 0-.218-.04-.417-.12-.575a.782.782 0 00-.36-.358 1.36 1.36 0 00-.52-.198c-.2-.04-.42-.06-.64-.06h-.92v2.422h-.02zm11 .496c-.04.04-.12.1-.22.16-.1.079-.26.158-.42.218-.18.079-.38.138-.62.198s-.52.08-.84.08c-.6 0-1.12-.1-1.56-.298-.44-.199-.8-.457-1.08-.814-.28-.337-.5-.754-.62-1.23-.14-.477-.2-.993-.2-1.569 0-.575.06-1.091.2-1.567.14-.477.36-.894.64-1.25.28-.358.64-.636 1.08-.835.44-.198.94-.297 1.54-.297.3 0 .56.04.8.099.24.06.46.139.64.218.18.1.34.179.46.278.12.1.2.179.26.238.04.04.06.08.06.14.02.059.02.099.02.138 0 .14-.04.278-.14.417-.1.139-.2.258-.32.357-.1-.099-.2-.178-.3-.278-.1-.099-.24-.178-.38-.258-.14-.079-.3-.139-.48-.178a2.74 2.74 0 00-.6-.08c-.4 0-.74.08-1.02.239-.28.158-.5.377-.66.635a2.91 2.91 0 00-.36.913c-.08.337-.1.674-.1 1.032 0 .357.04.714.1 1.052.08.337.2.635.36.913.18.258.4.476.68.635.28.159.64.238 1.06.238.24 0 .44-.04.62-.1.18-.059.34-.118.48-.198.14-.08.26-.159.36-.238.1-.08.18-.159.24-.218l.16.159c.06.059.1.138.16.218.04.08.08.139.12.218.04.08.04.139.04.179 0 .08-.02.159-.06.218.02.08-.04.159-.1.218zm1.88.496V14.52c.08-.02.16-.02.24-.04.08 0 .14-.02.2-.02.1 0 .2 0 .3.02.1.02.2.06.28.12a.83.83 0 01.22.238c.06.099.08.258.08.416v6.748h-1.32v.02zm5.04.1c-.26 0-.48-.06-.66-.18a1.24 1.24 0 01-.42-.436l-.82-1.409a5.347 5.347 0 00-.68-.953c-.24-.258-.5-.436-.8-.516v-1.012c.16-.04.28-.099.4-.198.12-.08.22-.179.32-.298.1-.12.2-.258.3-.417.1-.159.22-.337.36-.516l.52-.734c.18-.278.36-.496.58-.675.22-.179.46-.278.74-.278.22 0 .4.06.56.159.16.1.22.278.22.516 0 .1 0 .159-.02.179-.24 0-.44.06-.6.198a2.4 2.4 0 00-.42.476l-.64.933c-.14.238-.3.457-.48.655a1.47 1.47 0 01-.72.437c.32.1.6.258.8.476.22.219.42.496.6.814l1.58 2.62c-.16.08-.3.139-.46.159-.06 0-.1.02-.14.02-.02-.02-.06-.02-.12-.02zm2.18-7.622c.08-.02.14-.02.2-.04.06 0 .12-.02.18-.02.1 0 .18 0 .3.02.1.02.2.06.28.12a.83.83 0 01.22.238c.06.099.08.258.08.416v4.724l3.22-5.08c.1-.16.22-.279.32-.338.1-.08.26-.1.46-.1.22 0 .4.02.56.06v7.502h-1.24v-5.359l-3.44 5.36h-1.12v-7.503h-.02zm10.28 4.843l-1.58 2.68h-1.44l2.26-3.752-2.04-3.592c.12-.06.26-.1.4-.139.14-.04.28-.06.42-.06.36 0 .64.18.84.536l1.2 2.203 1.12-1.885c.1-.159.18-.298.28-.417.08-.119.16-.198.24-.258.08-.06.16-.1.26-.139.1-.02.2-.04.32-.04.14 0 .26.02.36.06.1.04.22.08.32.139l-2.14 3.553 2.26 3.79c-.28.1-.52.14-.74.14-.26 0-.46-.04-.6-.14a1.702 1.702 0 01-.42-.476l-1.32-2.203zm-69.3 10.32l-1.58 2.68H49.3l2.26-3.751-2.04-3.593c.12-.06.26-.099.4-.139.14-.04.28-.06.42-.06.36 0 .64.18.84.537l1.2 2.203 1.12-1.886c.1-.159.18-.297.28-.417.08-.119.16-.198.24-.258.08-.06.16-.099.26-.139.1-.02.2-.04.32-.04.14 0 .26.02.36.06.1.04.22.08.32.14l-2.14 3.552 2.26 3.79c-.28.1-.52.14-.74.14-.26 0-.46-.04-.6-.14a1.688 1.688 0 01-.42-.476l-1.32-2.203zm4.52-4.822c.08-.02.14-.02.2-.04.06 0 .12-.02.18-.02.1 0 .18 0 .3.02.1.02.2.06.28.12a.84.84 0 01.22.237c.06.1.08.258.08.417v4.724l3.22-5.081c.1-.159.22-.278.32-.337.1-.08.26-.1.46-.1.22 0 .4.02.56.06v7.502H61.4v-5.359l-3.44 5.36h-1.12V24.84zm12.9 2.163c0 .496-.08.893-.24 1.23-.16.338-.38.596-.66.795-.28.198-.6.337-.96.436-.36.08-.76.14-1.16.14h-.64v2.758h-1.34v-7.483c.32-.04.64-.059.98-.079.34-.02.64-.02.94-.02 1.08 0 1.88.179 2.36.556.48.357.72.933.72 1.667zm-1.36.08c0-.239-.04-.457-.12-.616a1.36 1.36 0 00-.34-.416c-.14-.1-.32-.18-.52-.239-.2-.04-.42-.06-.64-.06-.12 0-.24 0-.36.02-.12 0-.24.02-.36.04v2.799h.4c.32 0 .6-.02.84-.08.24-.04.44-.139.6-.238.16-.119.28-.278.38-.456.08-.219.12-.457.12-.754zm3.64 5.457c-.32 0-.6-.04-.84-.139s-.36-.238-.36-.456c0-.1.02-.218.08-.357.06-.14.12-.278.2-.397.08.06.18.119.32.178.12.06.28.08.44.08.26 0 .46-.08.62-.258.14-.179.3-.437.44-.774l.24-.576-2.56-4.843c.12-.06.26-.099.38-.139.12-.04.26-.06.42-.06.36 0 .64.18.82.537l1.6 3.215 1.24-3.096c.1-.238.22-.397.36-.496.14-.1.32-.14.54-.14.14 0 .26.02.36.06.1.04.22.08.34.14l-2.56 5.775c-.1.238-.22.456-.34.674-.12.219-.26.397-.42.576a1.9 1.9 0 01-.56.397c-.2.06-.46.1-.76.1zm11-5.537c0 .496-.08.893-.24 1.23-.16.338-.38.596-.66.795-.28.198-.6.337-.96.436-.36.08-.76.14-1.16.14h-.64v2.758H78v-7.483c.32-.04.64-.059.98-.079.34-.02.64-.02.94-.02 1.08 0 1.88.179 2.36.556.5.357.74.933.74 1.667zm-1.36.08c0-.239-.04-.457-.12-.616a1.36 1.36 0 00-.34-.416c-.14-.1-.32-.18-.52-.239-.2-.04-.42-.06-.64-.06-.12 0-.24 0-.36.02-.12 0-.24.02-.36.04v2.799h.4c.32 0 .6-.02.84-.08.24-.04.44-.139.6-.238.16-.119.28-.278.38-.456.08-.219.12-.457.12-.754zm2.94-2.243h4.54c.02.06.02.119.02.159v.178c0 .238-.06.417-.18.536-.12.12-.34.179-.68.179h-2.38v6.45H84.6V24.84zm11.74 3.73a5.43 5.43 0 01-.2 1.53 3.56 3.56 0 01-.6 1.27c-.28.357-.62.654-1.06.853-.42.218-.94.317-1.54.317-.6 0-1.12-.099-1.54-.317a2.717 2.717 0 01-1.02-.873 3.606 3.606 0 01-.58-1.25 6.116 6.116 0 01-.18-1.51c0-.515.06-1.012.2-1.488s.34-.893.62-1.23c.28-.358.64-.635 1.06-.854.44-.218.94-.317 1.54-.317.58 0 1.08.099 1.5.297.42.199.76.477 1.02.834s.46.754.58 1.23c.14.457.2.973.2 1.509zm-1.38.02c0-.376-.04-.734-.1-1.071a2.954 2.954 0 00-.32-.893 1.97 1.97 0 00-.6-.615c-.26-.16-.56-.219-.92-.219-.38 0-.7.08-.96.219-.26.158-.46.357-.62.615-.16.258-.28.556-.34.893-.06.337-.1.695-.1 1.072 0 .377.04.734.1 1.091.06.358.18.655.34.913.16.258.36.477.62.636.26.158.56.238.94.238.36 0 .68-.08.94-.239.26-.158.46-.377.62-.635.16-.258.26-.575.34-.913.04-.357.06-.714.06-1.091zm8.5 1.589c0 .417-.08.774-.22 1.052a1.83 1.83 0 01-.62.674c-.28.16-.6.278-.98.358-.38.06-.8.099-1.28.099h-2.14v-7.483c.36-.04.7-.059 1-.079.3-.02.64-.02.98-.02.56 0 1.02.04 1.38.12.38.079.68.198.9.377.22.158.38.357.48.595.1.238.14.496.14.794 0 .258-.04.476-.1.675-.08.198-.16.357-.28.496a1.87 1.87 0 01-.36.337c-.14.1-.26.159-.38.199.14.04.28.099.46.158.16.08.32.179.48.318.16.139.28.317.38.516.1.218.16.496.16.814zm-1.7-3.454a.961.961 0 00-.12-.496.923.923 0 00-.32-.298c-.14-.079-.3-.119-.5-.158-.2-.04-.4-.04-.64-.04-.16 0-.3 0-.4.02-.1 0-.2.02-.26.02v2.242h.88c.4 0 .74-.119.98-.337.26-.238.38-.536.38-.953zm-2.22 4.645h.66c.3 0 .56-.02.8-.04.24-.04.44-.1.6-.179.16-.099.3-.218.38-.377.1-.159.14-.377.14-.635 0-.218-.04-.417-.12-.575a.782.782 0 00-.36-.358 1.345 1.345 0 00-.52-.198c-.2-.04-.42-.06-.64-.06h-.92v2.422h-.02z" fill="#3D4FA2"/><path d="M49.3 37.085c.02 0 .06-.02.08-.02h.06c.04 0 .08 0 .12.02.04 0 .08.02.12.04.04.02.06.06.08.1.02.039.04.098.04.158v1.806l1.24-1.945c.04-.06.08-.1.12-.139a.4.4 0 01.18-.04c.08 0 .16 0 .22.02v2.878h-.48V37.92l-1.32 2.044h-.42v-2.878h-.04zm3.42 1.191h1.2v-1.19c.04 0 .06-.02.1-.02h.08c.04 0 .08 0 .12.02.04 0 .08.02.1.039.04.02.06.06.08.1.02.039.04.098.04.158v2.58h-.5v-1.29h-1.2v1.29h-.5v-2.878c.04 0 .06-.02.1-.02h.08c.04 0 .08 0 .12.02.04 0 .08.02.1.04.04.02.06.06.08.1.02.039.04.098.04.158v.893h-.04zm2.92 0h1.2v-1.19c.04 0 .06-.02.1-.02h.08c.04 0 .08 0 .12.02.04 0 .08.02.1.039.04.02.06.06.08.1.02.039.04.098.04.158v2.58h-.5v-1.29h-1.2v1.29h-.5v-2.878c.04 0 .06-.02.1-.02h.08c.04 0 .08 0 .12.02.04 0 .08.02.1.04.04.02.06.06.08.1.02.039.04.098.04.158v.893h-.04zm4.92.239c0 .198-.02.396-.08.595a1.08 1.08 0 01-.24.476 1.1 1.1 0 01-.4.338c-.16.08-.36.119-.6.119s-.42-.04-.6-.12a1.1 1.1 0 01-.4-.337 1.3 1.3 0 01-.22-.476 2.674 2.674 0 01-.06-.575c0-.199.02-.397.08-.576.06-.179.14-.338.24-.477.1-.138.24-.238.42-.317.16-.08.36-.12.58-.12.22 0 .42.04.58.12.16.08.3.179.4.318.1.139.18.297.22.476.06.159.08.357.08.556zm-.52 0c0-.14-.02-.278-.04-.417a.846.846 0 00-.12-.338.688.688 0 00-.24-.238.69.69 0 00-.36-.08.69.69 0 00-.36.08.7.7 0 00-.24.238c-.06.1-.1.219-.14.338-.02.139-.04.258-.04.417 0 .139.02.277.04.416.02.14.06.258.12.358a.694.694 0 00.96.238.7.7 0 00.24-.238c.06-.1.1-.219.12-.358.04-.119.06-.258.06-.416zm3.16.615c0 .159-.02.298-.08.397-.06.1-.14.198-.24.258-.1.06-.22.1-.38.139-.14.02-.3.04-.48.04h-.82v-2.859c.14-.02.26-.02.38-.04.12 0 .24-.02.38-.02.22 0 .38.02.54.04.14.04.26.08.34.14.08.06.14.139.18.238.04.099.06.198.06.317 0 .1-.02.179-.04.258a.618.618 0 01-.1.199c-.04.06-.1.099-.14.139-.06.04-.1.06-.14.08l.18.059c.06.02.12.06.18.119.06.06.1.119.14.198.02.08.04.179.04.298zm-.64-1.31c0-.08-.02-.139-.04-.199a.338.338 0 00-.12-.119l-.18-.06c-.08-.019-.16-.019-.24-.019h-.26v.853h.34a.5.5 0 00.38-.139.463.463 0 00.12-.317zm-.86 1.766h.26c.12 0 .22 0 .3-.02l.24-.059c.06-.04.12-.08.14-.139a.42.42 0 00.06-.238.71.71 0 00-.04-.219.466.466 0 00-.14-.138.603.603 0 00-.2-.08c-.08-.02-.16-.02-.24-.02h-.36v.913h-.02zm4.44.377h-.52l-.26-.734h-1.08l-.26.734h-.5l1.02-2.838c.04-.02.08-.02.12-.04.06-.02.1-.02.16-.02h.1c.04 0 .06.02.1.04.04.02.06.04.08.06l.06.119.98 2.68zm-.9-1.111l-.42-1.29-.42 1.29h.84zm1.36-1.767c.04 0 .06-.02.1-.02h.08c.04 0 .08 0 .12.02.04 0 .08.02.12.04.04.02.06.06.08.1.02.039.04.098.04.158v2.183h1.16v-2.48c.04 0 .06-.02.1-.02h.08c.04 0 .08 0 .12.02.04 0 .08.02.12.039.04.02.06.06.08.1.02.039.04.098.04.158v2.183h.3v1.092h-.48v-.675h-2v-2.898h-.06zm2.94 0c.02 0 .06-.02.08-.02h.06c.04 0 .08 0 .12.02.04 0 .08.02.12.04.04.02.06.06.08.1.02.039.04.098.04.158v1.806l1.24-1.945c.04-.06.08-.1.12-.139a.4.4 0 01.18-.04c.08 0 .16 0 .22.02v2.878h-.48V37.92L70 39.963h-.42v-2.878h-.04zm2.94 0c.02 0 .06-.02.08-.02h.06c.04 0 .08 0 .12.02.04 0 .08.02.12.04.04.02.06.06.08.1.02.039.04.098.04.158v1.806l1.24-1.945c.04-.06.08-.1.12-.139a.4.4 0 01.18-.04c.08 0 .16 0 .22.02v2.878h-.48V37.92l-1.32 2.044h-.42v-2.878h-.04zm4.98 0c.02 0 .06-.02.08-.02h.06c.04 0 .08 0 .12.02.04 0 .08.02.12.04.04.02.06.06.08.1.02.039.04.098.04.158v1.806l1.24-1.945c.04-.06.08-.1.12-.139a.4.4 0 01.18-.04c.08 0 .16 0 .22.02v2.878h-.48V37.92l-1.32 2.044h-.42v-2.878h-.04zm5 2.878v-2.878h2.2v2.878h-.5v-2.46h-1.2v2.46h-.5zm4.84-2.044c0 .179-.04.337-.1.476-.06.12-.14.238-.26.298-.1.08-.24.139-.38.159-.14.04-.28.04-.44.04h-.24v1.051h-.52v-2.858c.12-.02.24-.02.38-.04.12 0 .24-.02.36-.02.42 0 .72.08.9.22.2.178.3.396.3.674zm-.52.02c0-.1-.02-.179-.04-.238a1.11 1.11 0 00-.12-.16c-.06-.039-.12-.078-.2-.078-.08-.02-.16-.02-.24-.02h-.14c-.04 0-.08 0-.14.02v1.071h.16c.12 0 .22 0 .32-.02s.16-.06.24-.099c.06-.04.1-.099.14-.178 0-.08.02-.18.02-.298zm3.06 2.024h-.52l-.26-.734h-1.08l-.26.734h-.5l1.02-2.838c.04-.02.08-.02.12-.04.06-.02.1-.02.16-.02h.1c.04 0 .06.02.1.04.04.02.06.04.08.06l.06.119.98 2.68zm-.9-1.111l-.42-1.29-.42 1.29h.84zm1.34 1.111v-2.878c.04 0 .06-.02.1-.02h.08c.04 0 .08 0 .12.02.04 0 .08.02.1.04.04.02.06.06.08.1.02.039.04.098.04.158v2.58h-.52zm1.94.04c-.1 0-.18-.02-.26-.06a.606.606 0 01-.16-.158l-.32-.536a3.107 3.107 0 00-.26-.378.721.721 0 00-.3-.198v-.397a.6.6 0 00.16-.08l.12-.118c.04-.04.08-.1.12-.16.04-.059.08-.118.14-.198l.2-.277c.06-.1.14-.199.22-.258.08-.08.18-.1.28-.1.08 0 .16.02.22.06.06.04.08.1.08.198v.06a.3.3 0 00-.22.08c-.06.059-.12.118-.16.178l-.24.357c-.06.08-.12.179-.18.258a.439.439 0 01-.28.159c.12.04.22.1.32.178.08.08.16.199.24.318l.6 1.012c-.06.04-.12.06-.18.06h-.14zm1.4-.04v-2.46h-.92c0-.04 0-.06-.02-.08v-.08c0-.06.02-.139.08-.178.06-.06.14-.08.24-.08h2.02v.16c0 .079-.02.138-.08.198-.04.06-.12.08-.24.08h-.6v2.46h-.48v-.02zm1.86-2.878c.02 0 .06-.02.08-.02h.06c.04 0 .08 0 .12.02.04 0 .08.02.12.04.04.02.06.06.08.1.02.039.04.098.04.158v1.806l1.24-1.945c.04-.06.08-.1.12-.139a.4.4 0 01.18-.04c.08 0 .16 0 .22.02v2.878h-.48V37.92l-1.32 2.044h-.42v-2.878h-.04zm2.92 2.878v-2.878c.04 0 .06-.02.1-.02h.08c.04 0 .08 0 .12.02.04 0 .08.02.1.04.04.02.06.06.08.1.02.039.04.098.04.158v2.58h-.52zm1.94.04c-.1 0-.18-.02-.26-.06a.605.605 0 01-.16-.158l-.32-.536a3.107 3.107 0 00-.26-.378.721.721 0 00-.3-.198v-.397a.6.6 0 00.16-.08l.12-.118c.04-.04.08-.1.12-.16.04-.059.08-.118.14-.198l.2-.277c.06-.1.14-.199.22-.258.08-.08.18-.1.28-.1.08 0 .16.02.22.06.06.04.08.1.08.198v.06a.3.3 0 00-.22.08c-.06.059-.12.118-.16.178l-.24.357c-.06.08-.12.179-.18.258a.439.439 0 01-.28.159c.12.04.22.1.32.178.08.08.16.199.24.318l.6 1.012c-.06.04-.12.06-.18.06h-.14zm3.12-.04h-.52l-.26-.734h-1.08l-.26.734h-.5l1.02-2.838c.04-.02.08-.02.12-.04.06-.02.1-.02.16-.02h.1c.04 0 .06.02.1.04.04.02.06.04.08.06l.06.119.98 2.68zm-.9-1.111l-.42-1.29-.42 1.29h.84zm-52.82 4.723h1.2v-1.19c.04 0 .06-.02.1-.02h.08c.04 0 .08 0 .12.02.04 0 .08.02.1.04.04.02.06.059.08.099.02.04.04.099.04.158v2.58h-.5v-1.29h-1.2v1.29h-.5v-2.877c.04 0 .06-.02.1-.02h.08c.04 0 .08 0 .12.02.04 0 .08.02.1.04.04.02.06.059.08.099.02.04.04.099.04.158v.893h-.04zm4.92.219c0 .198-.02.397-.08.595a1.08 1.08 0 01-.24.477 1.1 1.1 0 01-.4.337c-.16.08-.36.12-.6.12s-.42-.04-.6-.12a1.1 1.1 0 01-.4-.337c-.1-.14-.18-.298-.22-.477a2.674 2.674 0 01-.06-.575c0-.199.02-.397.08-.576.06-.178.14-.337.24-.476.1-.14.24-.238.42-.318.16-.08.36-.119.58-.119.22 0 .42.04.58.12.16.079.3.178.4.317.1.139.18.297.22.476.06.159.08.357.08.556zm-.52.02c0-.14-.02-.278-.04-.417a.846.846 0 00-.12-.337.687.687 0 00-.24-.239.689.689 0 00-.36-.079c-.14 0-.26.02-.36.08a.681.681 0 00-.24.237c-.06.1-.1.219-.14.338-.02.139-.04.258-.04.417 0 .139.02.278.04.416.02.14.06.259.12.358a.695.695 0 00.96.238c.1-.06.18-.139.24-.238.06-.1.1-.218.12-.358a1.5 1.5 0 00.06-.416zm24.82-.239h1.2v-1.19c.04 0 .06-.02.1-.02h.08c.04 0 .08 0 .12.02.04 0 .08.02.1.04.04.02.06.059.08.099.02.04.04.099.04.158v2.58h-.5v-1.29h-1.2v1.29h-.5v-2.877c.04 0 .06-.02.1-.02h.08c.04 0 .08 0 .12.02.04 0 .08.02.1.04.04.02.06.059.08.099.02.04.04.099.04.158v.893h-.04zm4.92.219c0 .198-.02.397-.08.595a1.08 1.08 0 01-.24.477 1.1 1.1 0 01-.4.337c-.16.08-.36.12-.6.12s-.42-.04-.6-.12a1.1 1.1 0 01-.4-.337c-.1-.14-.18-.298-.22-.477a2.674 2.674 0 01-.06-.575c0-.199.02-.397.08-.576.06-.178.14-.337.24-.476.1-.14.24-.238.42-.318.16-.08.36-.119.58-.119.22 0 .42.04.58.12.16.079.3.178.4.317.1.139.18.297.22.476.06.159.08.357.08.556zm-.52.02c0-.14-.02-.278-.04-.417a.846.846 0 00-.12-.337.687.687 0 00-.24-.239.689.689 0 00-.36-.079c-.14 0-.26.02-.36.08a.681.681 0 00-.24.237c-.06.1-.1.219-.14.338-.02.139-.04.258-.04.417 0 .139.02.278.04.416.02.14.06.259.12.358a.695.695 0 00.96.238c.1-.06.18-.139.24-.238.06-.1.1-.218.12-.358a1.5 1.5 0 00.06-.416zm-26.06.616c0 .158-.02.297-.08.396-.06.1-.14.199-.24.258-.1.06-.22.1-.38.14-.14.019-.3.039-.48.039h-.82v-2.858c.14-.02.26-.02.38-.04.12 0 .24-.02.38-.02.22 0 .38.02.54.04.14.04.26.08.34.139.08.06.14.139.18.238.04.1.06.199.06.318 0 .099-.02.178-.04.258a.615.615 0 01-.1.198c-.04.06-.1.1-.14.139-.06.04-.1.06-.14.08l.18.059c.06.02.12.06.18.119.06.06.1.12.14.199.02.079.04.178.04.297zm-.64-1.31c0-.08-.02-.14-.04-.2a.338.338 0 00-.12-.118l-.18-.06c-.08-.02-.16-.02-.24-.02h-.26v.854h.34a.5.5 0 00.38-.14c.06-.039.12-.158.12-.317zm-.86 1.766h.26c.12 0 .22 0 .3-.02l.24-.06c.06-.04.12-.08.14-.139a.42.42 0 00.06-.238.7.7 0 00-.04-.218.465.465 0 00-.14-.14.603.603 0 00-.2-.078c-.08-.02-.16-.02-.24-.02h-.38v.913zm4.44.377h-.52l-.26-.735h-1.08l-.26.735h-.5l1.02-2.839c.04-.02.08-.02.12-.04.06-.02.1-.02.16-.02h.1c.04 0 .06.02.1.04.04.02.06.04.08.06l.06.12.98 2.678zm-.9-1.112l-.42-1.29-.42 1.29h.84zm13.2 1.112H72l-.26-.735h-1.08l-.26.735h-.5l1.02-2.839c.04-.02.08-.02.12-.04.06-.02.1-.02.16-.02h.1c.04 0 .06.02.1.04.04.02.06.04.08.06l.06.12 1 2.678zm-.9-1.112l-.42-1.29-.42 1.29h.84zm-4.46-.933c0 .179-.04.338-.1.477-.06.119-.14.238-.26.297-.1.08-.24.14-.38.16-.14.039-.28.039-.44.039h-.24v1.052h-.52v-2.858c.12-.02.24-.02.38-.04.12 0 .24-.02.36-.02.42 0 .72.08.9.218.2.18.3.398.3.675zm-.52.02c0-.1-.02-.178-.04-.238-.04-.06-.08-.12-.12-.159-.06-.04-.12-.08-.2-.08-.08-.019-.16-.019-.24-.019h-.14c-.04 0-.08 0-.14.02v1.072h.16c.12 0 .22 0 .32-.02s.16-.06.24-.1c.06-.04.1-.099.14-.178 0-.08.02-.179.02-.298zm10.9 1.826c-.18.139-.5.218-.9.218-.1 0-.22 0-.36-.02-.12 0-.26-.02-.38-.04v-2.857h.52v1.052h.24c.16 0 .3.02.44.04.14.039.26.079.38.158.1.08.2.179.26.298s.1.278.1.476c0 .318-.1.516-.3.675zm-.28-.972a.433.433 0 00-.14-.18.671.671 0 00-.24-.098c-.1-.02-.2-.02-.32-.02h-.16v1.072c.04 0 .1.02.14.02h.14c.08 0 .18 0 .24-.02a.6.6 0 00.2-.08c.06-.04.1-.1.12-.159.04-.06.04-.139.04-.238a.373.373 0 00-.02-.297zm13.9.972c-.18.139-.5.218-.9.218-.1 0-.22 0-.36-.02-.12 0-.26-.02-.38-.04v-2.857h.52v1.052h.24c.16 0 .3.02.44.04.14.039.26.079.38.158.1.08.2.179.26.298s.1.278.1.476c0 .318-.1.516-.3.675zm-.28-.972a.433.433 0 00-.14-.18.671.671 0 00-.24-.098c-.1-.02-.2-.02-.32-.02h-.16v1.072c.04 0 .1.02.14.02h.14c.08 0 .18 0 .24-.02a.6.6 0 00.2-.08c.06-.04.1-.1.12-.159.04-.06.04-.139.04-.238a.373.373 0 00-.02-.297zm-3.1 1.171v-2.461h-.92c0-.04 0-.06-.02-.08v-.08c0-.059.02-.138.08-.178.06-.06.14-.08.24-.08h2.02v.16c0 .079-.02.139-.08.198-.04.06-.12.08-.24.08h-.6v2.46h-.48v-.02zm-1.26-.238c-.02.02-.04.04-.08.059-.04.02-.1.06-.16.08-.06.02-.14.059-.24.079-.1.02-.2.02-.32.02-.22 0-.42-.04-.58-.1a1.01 1.01 0 01-.4-.297 1.09 1.09 0 01-.22-.457 2.665 2.665 0 01-.08-.575c0-.219.02-.397.08-.576.06-.179.14-.337.24-.456a.85.85 0 01.4-.298c.16-.08.34-.12.56-.12.1 0 .2.02.3.04.1.02.16.06.24.08.06.04.12.06.16.1.04.039.08.059.1.098.02.02.02.04.02.06v.06c0 .059-.02.099-.06.158a.34.34 0 01-.12.12c-.04-.04-.08-.06-.12-.1-.04-.04-.08-.06-.14-.1-.06-.019-.12-.059-.18-.059-.06-.02-.14-.02-.22-.02a.711.711 0 00-.62.338c-.06.099-.1.198-.14.337-.02.12-.04.258-.04.377 0 .14.02.258.04.397.02.12.08.238.14.338a.61.61 0 00.26.238c.1.06.24.08.4.08.08 0 .16-.02.24-.04.06-.02.12-.04.18-.08.06-.02.1-.06.12-.1.04-.039.06-.059.1-.079l.06.06c.02.02.04.06.06.08.02.02.04.059.04.079.02.02.02.04.02.06 0 .04 0 .059-.02.079.02-.02 0 0-.02.04zm-18.4-.179h1c.12 0 .2.02.26.08.04.059.08.118.08.198v.119h-1.84v-2.898h1.76c0 .02 0 .04.02.06v.08c0 .098-.02.158-.06.198-.04.04-.14.079-.26.079h-.94v.774h.96v.417h-.96v.893h-.02zm-5.78-2.481c-.12 0-.24-.02-.36-.02-.36 0-.62.06-.82.159-.02.02-.06.04-.08.06a.686.686 0 00-.24.377.99.99 0 00-.04.258c0 .178.04.337.1.476.06.12.14.238.26.298.06.04.12.08.2.099a.883.883 0 00-.16.218l-.24.358a.698.698 0 01-.16.178.3.3 0 01-.22.08v.06c0 .078.02.158.08.197.06.04.12.06.22.06.12 0 .2-.04.28-.1.08-.078.16-.158.22-.257l.2-.278c.06-.08.1-.139.14-.199.04-.06.08-.119.12-.158.02-.02.04-.02.04-.04h.36v1.052h.52v-2.858c-.18 0-.3 0-.42-.02zm-.14 1.469h-.16c-.12 0-.22 0-.32-.02s-.16-.06-.24-.1a.429.429 0 01-.14-.178c-.04-.08-.04-.179-.04-.278 0-.099.02-.178.04-.238a.15.15 0 00.04-.08c.02-.04.04-.059.08-.079.06-.04.12-.08.2-.08.08-.019.16-.019.24-.019h.14c.04 0 .08 0 .14.02v1.052h.02zm12.4-1.231l-.06-.119c-.02-.04-.06-.06-.08-.06-.04-.02-.06-.02-.1-.04h-.1c-.06 0-.12 0-.16.02-.06.02-.1.02-.12.04l-1.02 2.838h.5l.26-.734.1-.377.42-1.29.42 1.29.1.377.26.734h.52l-.94-2.679z" fill="#000"/><path d="M37.8 32.47c-6.22 9.845-13.62 9.904-13.62 9.904 4.56-1.25 9.24-3.731 12.5-8.792 2.46-3.811 4.32-8.574 5.1-10.698a18.74 18.74 0 00-.34-3.374l-3.08 5.815c-.5.973-1.64 1.39-2.5.933-.86-.456-1.16-1.608-.66-2.58l4.7-8.892c-.28-.575-.56-1.131-.9-1.667L23.28 42.87c1.78-.119 3.5-.476 5.12-1.052 3.08-1.27 7.02-4.029 10.22-9.943C40.14 29.037 41 27.27 41.56 26c.14-.913.2-1.846.2-2.798-1.56 5.279-3.96 9.268-3.96 9.268z" fill="#3D4FA2"/><path d="M11.68 34.117H9.66L6.02 23.558c.1-.04.24-.06.42-.079.18-.02.38-.04.58-.04.66 0 1.1.358 1.32 1.052l2.38 7.622 2.44-7.662c.1-.337.26-.595.46-.774.2-.178.48-.258.84-.258.14 0 .3 0 .42.02.14.02.3.06.46.1l-3.66 10.578zm4.68-.079V23.499c.12-.02.24-.04.34-.04.12-.02.2-.02.28-.02.12 0 .26.02.42.04.14.02.28.08.4.159.12.08.22.198.3.337.08.16.12.358.12.596v9.467h-1.86zm3.3 0V23.499c.12-.02.24-.04.34-.04.12-.02.2-.02.28-.02.12 0 .26.02.42.04.14.02.28.08.4.159.12.08.22.198.3.337.08.16.12.358.12.596v9.467h-1.86zm3.32 0V23.499c.12-.02.24-.04.34-.04.12-.02.2-.02.28-.02.12 0 .26.02.42.04.14.02.28.08.4.159.12.08.22.198.3.337.08.16.12.358.12.596v9.467h-1.86z" fill="#fff"/></g><defs><clipPath id="clip0_1911_5596"><path fill="#fff" d="M0 0h130v52H0z"/></clipPath></defs></svg>