<svg width="50" height="50" fill="none" xmlns="http://www.w3.org/2000/svg"><path d="M5 43.333c0 .46.373.834.833.834h15c.46 0 .834-.373.834-.834v-4.15a4.185 4.185 0 00-3.021-4.01l-2.813-.803v-1.058A4.148 4.148 0 0017.5 30v-.833c.46 0 .833-.373.833-.834V27.5a5 5 0 00-10 0v.833c0 .46.373.834.834.834V30a4.148 4.148 0 001.666 3.312v1.058l-2.811.803A4.184 4.184 0 005 39.183v4.15zm8.333-19.166a3.333 3.333 0 013.334 3.31.834.834 0 01-.55-.439l-.371-.743a.832.832 0 00-1.209-.322l-1.24.827c-.684.457-1.488.7-2.311.7H10a3.333 3.333 0 013.333-3.333zm-2.347 5a5.815 5.815 0 003.236-.98l.456-.305c.263.463.668.829 1.155 1.042V30a2.5 2.5 0 01-5 0v-.833h.153zm2.347 5c.28 0 .56-.028.834-.084V35a.827.827 0 00.287.617l-1.12.841-1.122-.841A.826.826 0 0012.5 35v-.917c.274.056.553.084.833.084zm-6.666 5.016a2.512 2.512 0 011.812-2.407l1.813-.517 2.541 1.907a.832.832 0 001 0l2.542-1.907 1.814.517A2.51 2.51 0 0120 39.183V42.5h-1.667v-3.333h-1.666V42.5H10v-3.333H8.333V42.5H6.667v-3.317zm37.5-.017a2.5 2.5 0 002.5-2.5v-10a2.5 2.5 0 00-2.5-2.5H27.5a2.5 2.5 0 00-2.5 2.5v10a2.5 2.5 0 002.5 2.5h5.833V42.5h-1.666v1.666H40V42.5h-1.667v-3.334h5.834zM27.5 37.5a.833.833 0 01-.833-.834v-10c0-.46.373-.833.833-.833h16.667c.46 0 .833.373.833.834v10c0 .46-.373.833-.833.833h-5.834v-4.167a.833.833 0 00-.833-.833h-3.333a.833.833 0 00-.834.833V37.5H27.5zm7.5 5v-8.334h1.667V42.5H35zM16.667 16.667h5v4.166a.834.834 0 001.422.59l4.756-4.756h10.488a2.5 2.5 0 002.5-2.5V2.5a2.5 2.5 0 00-2.5-2.5H16.667a2.5 2.5 0 00-2.5 2.5v11.667a2.5 2.5 0 002.5 2.5zM15.833 2.5c0-.46.373-.833.834-.833h21.666c.46 0 .834.373.834.833v11.667c0 .46-.373.833-.834.833H27.5a.833.833 0 00-.59.244l-3.577 3.578v-2.989A.833.833 0 0022.5 15h-5.833a.833.833 0 01-.834-.833V2.5zM50 45H0v1.667h1.667v2.5c0 .46.373.833.833.833h45c.46 0 .833-.373.833-.833v-2.5H50V45zm-3.333 3.333H3.333v-1.666h43.334v1.666z" fill="#354BB4"/><path d="M20 4.167h15v1.666H20V4.166zM20 7.5h15v1.667H20V7.5zm0 3.334h15V12.5H20v-1.666zM.833 28.333H5v-1.666H1.667V8.332h4.166V6.666h-5A.833.833 0 000 7.5v20c0 .46.373.833.833.833zM7.5 6.667h1.667v1.666H7.5V6.666zm3.333 0H12.5v1.666h-1.667V6.666zM45 15.833h1.667V7.5a.833.833 0 00-.834-.833H42.5v1.666H45v7.5zm0 1.667h1.667v1.667H45V17.5zm0 3.334h1.667V22.5H45v-1.666z" fill="#354BB4"/></svg>