<svg width="59" height="51" fill="none" xmlns="http://www.w3.org/2000/svg"><path d="M58.892 22.62a1.1 1.1 0 00-2.19.202c.066.71.1 1.433.1 2.146 0 12.703-10.293 23.038-22.944 23.038-6.127 0-11.89-2.396-16.222-6.746a1.099 1.099 0 10-1.558 1.552c4.749 4.768 11.064 7.393 17.78 7.393C47.721 50.205 59 38.883 59 24.968c0-.781-.038-1.571-.108-2.349zm-38.677-.661a1.098 1.098 0 00-1.555-.032l-7.657 7.352a23.133 23.133 0 01-.376-4.128C10.627 12.496 20.926 2.2 33.584 2.2c6.12 0 11.877 2.38 16.21 6.7a1.1 1.1 0 001.553-1.556A24.999 24.999 0 0033.584 0C19.713 0 8.429 11.283 8.429 25.151c0 1.104.075 2.202.217 3.29L1.86 21.927a1.1 1.1 0 00-1.523 1.586L9.5 32.308a1.095 1.095 0 001.523 0l9.161-8.795a1.1 1.1 0 00.03-1.554z" fill="#FAD264"/></svg>