<svg width="69" height="67" fill="none" xmlns="http://www.w3.org/2000/svg"><path d="M68.5 33.5c0 4.331-.879 8.621-2.586 12.624a32.953 32.953 0 01-7.367 10.705 34.089 34.089 0 01-11.031 7.157A34.895 34.895 0 0134.5 66.5c-4.467 0-8.89-.854-13.016-2.514a34.089 34.089 0 01-11.03-7.157 32.954 32.954 0 01-7.368-10.705A32.16 32.16 0 01.5 33.5c0-4.331.879-8.621 2.586-12.624a32.954 32.954 0 017.367-10.705 34.088 34.088 0 0111.031-7.157A34.896 34.896 0 0134.5.5c4.467 0 8.89.854 13.016 2.514a34.088 34.088 0 0111.03 7.157 32.953 32.953 0 017.368 10.705A32.158 32.158 0 0168.5 33.5h0z" stroke="#fff"/><mask id="path-2-inside-1" fill="#fff"><path d="M61.737 33.5c0 5.905-2.035 11.64-5.782 16.292-3.746 4.652-8.988 7.953-14.89 9.376a27.988 27.988 0 01-17.678-1.522c-5.553-2.41-10.115-6.554-12.96-11.774a25.777 25.777 0 01-2.739-17.026c1.07-5.813 4.113-11.111 8.644-15.05 4.531-3.94 10.29-6.292 16.358-6.685 6.068-.392 12.097 1.198 17.126 4.519l-.589.84c-4.836-3.193-10.633-4.722-16.468-4.345-5.835.378-11.372 2.64-15.729 6.428-4.356 3.788-7.282 8.882-8.311 14.472a24.786 24.786 0 002.633 16.372c2.736 5.019 7.123 9.004 12.462 11.32a26.912 26.912 0 0016.998 1.464c5.675-1.368 10.716-4.542 14.319-9.015 3.602-4.473 5.56-9.988 5.56-15.666h1.046z"/></mask><path d="M61.737 33.5c0 5.905-2.035 11.64-5.782 16.292-3.746 4.652-8.988 7.953-14.89 9.376a27.988 27.988 0 01-17.678-1.522c-5.553-2.41-10.115-6.554-12.96-11.774a25.777 25.777 0 01-2.739-17.026c1.07-5.813 4.113-11.111 8.644-15.05 4.531-3.94 10.29-6.292 16.358-6.685 6.068-.392 12.097 1.198 17.126 4.519l-.589.84c-4.836-3.193-10.633-4.722-16.468-4.345-5.835.378-11.372 2.64-15.729 6.428-4.356 3.788-7.282 8.882-8.311 14.472a24.786 24.786 0 002.633 16.372c2.736 5.019 7.123 9.004 12.462 11.32a26.912 26.912 0 0016.998 1.464c5.675-1.368 10.716-4.542 14.319-9.015 3.602-4.473 5.56-9.988 5.56-15.666h1.046z" stroke="#fff" stroke-width="2" mask="url(#path-2-inside-1)"/><path d="M37.268 23.818h-3.613l-4.501 2.85v3.41l4.164-2.611h.106V42h3.844V23.818z" fill="#FAD264"/></svg>